ISO-10303-21;
HEADER;
FILE_DESCRIPTION ('AP214 sliced-item-range test fixture','2;1');
FILE_NAME('ap214-sliced-item-ranges','2024-01-03T20:17:28',('Author'),('KittyCAD'),'KittyCAD Text to CAD','text-to-cad.kittycad.io','Unknown');
FILE_SCHEMA(('AUTOMOTIVE_DESIGN { 1 0 10303 214 1 1 1 1 }'));
ENDSEC;
DATA;
#1 = APPLICATION_PROTOCOL_DEFINITION('international standard',
  'automotive_design',2000,#2);
#2 = APPLICATION_CONTEXT(
  'core data for automotive mechanical design processes');
#3 = SHAPE_DEFINITION_REPRESENTATION(#4,#10);
#4 = PRODUCT_DEFINITION_SHAPE('','',#5);
#5 = PRODUCT_DEFINITION('design','',#6,#9);
#6 = PRODUCT_DEFINITION_FORMATION('','',#7);
#7 = PRODUCT('KittyCAD Text to CAD','KittyCAD Text to CAD','',(#8));
#8 = PRODUCT_CONTEXT('',#2,'mechanical');
#9 = PRODUCT_DEFINITION_CONTEXT('part definition',#2,'design');
#10 = ADVANCED_BREP_SHAPE_REPRESENTATION('',(#900004,#15,#100015,#200015),#197);
#11 = AXIS2_PLACEMENT_3D('',#12,#13,#14);
#12 = CARTESIAN_POINT('',(0.,0.,0.));
#13 = DIRECTION('',(0.,0.,1.));
#14 = DIRECTION('',(1.,0.,-0.));
#15 = MANIFOLD_SOLID_BREP('',#16);
#16 = CLOSED_SHELL('',(#17,#105,#140,#170));
#17 = ADVANCED_FACE('',(#18),#32,.T.);
#18 = FACE_BOUND('',#19,.F.);
#19 = EDGE_LOOP('',(#20,#50,#77,#78));
#20 = ORIENTED_EDGE('',*,*,#21,.T.);
#21 = EDGE_CURVE('',#22,#24,#26,.T.);
#22 = VERTEX_POINT('',#23);
#23 = CARTESIAN_POINT('',(25.,0.,0.));
#24 = VERTEX_POINT('',#25);
#25 = CARTESIAN_POINT('',(25.,0.,100.));
#26 = SEAM_CURVE('',#27,(#31,#43),.PCURVE_S1.);
#27 = LINE('',#28,#29);
#28 = CARTESIAN_POINT('',(25.,0.,0.));
#29 = VECTOR('',#30,1.);
#30 = DIRECTION('',(0.,0.,1.));
#31 = PCURVE('',#32,#37);
#32 = CYLINDRICAL_SURFACE('',#33,25.);
#33 = AXIS2_PLACEMENT_3D('',#34,#35,#36);
#34 = CARTESIAN_POINT('',(0.,0.,0.));
#35 = DIRECTION('',(-0.,-0.,-1.));
#36 = DIRECTION('',(1.,0.,0.));
#37 = DEFINITIONAL_REPRESENTATION('',(#38),#42);
#38 = LINE('',#39,#40);
#39 = CARTESIAN_POINT('',(-0.,0.));
#40 = VECTOR('',#41,1.);
#41 = DIRECTION('',(-0.,-1.));
#42 = ( GEOMETRIC_REPRESENTATION_CONTEXT(2) 
PARAMETRIC_REPRESENTATION_CONTEXT() REPRESENTATION_CONTEXT('2D SPACE',''
  ) );
#43 = PCURVE('',#32,#44);
#44 = DEFINITIONAL_REPRESENTATION('',(#45),#49);
#45 = LINE('',#46,#47);
#46 = CARTESIAN_POINT('',(-6.28318530718,0.));
#47 = VECTOR('',#48,1.);
#48 = DIRECTION('',(-0.,-1.));
#49 = ( GEOMETRIC_REPRESENTATION_CONTEXT(2) 
PARAMETRIC_REPRESENTATION_CONTEXT() REPRESENTATION_CONTEXT('2D SPACE',''
  ) );
#50 = ORIENTED_EDGE('',*,*,#51,.T.);
#51 = EDGE_CURVE('',#24,#24,#52,.T.);
#52 = SURFACE_CURVE('',#53,(#58,#65),.PCURVE_S1.);
#53 = CIRCLE('',#54,25.);
#54 = AXIS2_PLACEMENT_3D('',#55,#56,#57);
#55 = CARTESIAN_POINT('',(0.,0.,100.));
#56 = DIRECTION('',(0.,0.,1.));
#57 = DIRECTION('',(1.,0.,0.));
#58 = PCURVE('',#32,#59);
#59 = DEFINITIONAL_REPRESENTATION('',(#60),#64);
#60 = LINE('',#61,#62);
#61 = CARTESIAN_POINT('',(-0.,-100.));
#62 = VECTOR('',#63,1.);
#63 = DIRECTION('',(-1.,0.));
#64 = ( GEOMETRIC_REPRESENTATION_CONTEXT(2) 
PARAMETRIC_REPRESENTATION_CONTEXT() REPRESENTATION_CONTEXT('2D SPACE',''
  ) );
#65 = PCURVE('',#66,#71);
#66 = PLANE('',#67);
#67 = AXIS2_PLACEMENT_3D('',#68,#69,#70);
#68 = CARTESIAN_POINT('',(-8.751616848252E-16,1.604946055186E-15,100.));
#69 = DIRECTION('',(0.,0.,1.));
#70 = DIRECTION('',(1.,0.,-0.));
#71 = DEFINITIONAL_REPRESENTATION('',(#72),#76);
#72 = CIRCLE('',#73,25.);
#73 = AXIS2_PLACEMENT_2D('',#74,#75);
#74 = CARTESIAN_POINT('',(8.751616848252E-16,-1.604946055186E-15));
#75 = DIRECTION('',(1.,0.));
#76 = ( GEOMETRIC_REPRESENTATION_CONTEXT(2) 
PARAMETRIC_REPRESENTATION_CONTEXT() REPRESENTATION_CONTEXT('2D SPACE',''
  ) );
#77 = ORIENTED_EDGE('',*,*,#21,.F.);
#78 = ORIENTED_EDGE('',*,*,#79,.F.);
#79 = EDGE_CURVE('',#22,#22,#80,.T.);
#80 = SURFACE_CURVE('',#81,(#86,#93),.PCURVE_S1.);
#81 = CIRCLE('',#82,25.);
#82 = AXIS2_PLACEMENT_3D('',#83,#84,#85);
#83 = CARTESIAN_POINT('',(0.,0.,0.));
#84 = DIRECTION('',(0.,0.,1.));
#85 = DIRECTION('',(1.,0.,0.));
#86 = PCURVE('',#32,#87);
#87 = DEFINITIONAL_REPRESENTATION('',(#88),#92);
#88 = LINE('',#89,#90);
#89 = CARTESIAN_POINT('',(-0.,0.));
#90 = VECTOR('',#91,1.);
#91 = DIRECTION('',(-1.,0.));
#92 = ( GEOMETRIC_REPRESENTATION_CONTEXT(2) 
PARAMETRIC_REPRESENTATION_CONTEXT() REPRESENTATION_CONTEXT('2D SPACE',''
  ) );
#93 = PCURVE('',#94,#99);
#94 = PLANE('',#95);
#95 = AXIS2_PLACEMENT_3D('',#96,#97,#98);
#96 = CARTESIAN_POINT('',(-8.751616848252E-16,1.604946055186E-15,0.));
#97 = DIRECTION('',(0.,0.,1.));
#98 = DIRECTION('',(1.,0.,-0.));
#99 = DEFINITIONAL_REPRESENTATION('',(#100),#104);
#100 = CIRCLE('',#101,25.);
#101 = AXIS2_PLACEMENT_2D('',#102,#103);
#102 = CARTESIAN_POINT('',(8.751616848252E-16,-1.604946055186E-15));
#103 = DIRECTION('',(1.,0.));
#104 = ( GEOMETRIC_REPRESENTATION_CONTEXT(2) 
PARAMETRIC_REPRESENTATION_CONTEXT() REPRESENTATION_CONTEXT('2D SPACE',''
  ) );
#105 = ADVANCED_FACE('',(#106,#109),#94,.F.);
#106 = FACE_BOUND('',#107,.F.);
#107 = EDGE_LOOP('',(#108));
#108 = ORIENTED_EDGE('',*,*,#79,.T.);
#109 = FACE_BOUND('',#110,.F.);
#110 = EDGE_LOOP('',(#111));
#111 = ORIENTED_EDGE('',*,*,#112,.F.);
#112 = EDGE_CURVE('',#113,#113,#115,.T.);
#113 = VERTEX_POINT('',#114);
#114 = CARTESIAN_POINT('',(20.,0.,0.));
#115 = SURFACE_CURVE('',#116,(#121,#128),.PCURVE_S1.);
#116 = CIRCLE('',#117,20.);
#117 = AXIS2_PLACEMENT_3D('',#118,#119,#120);
#118 = CARTESIAN_POINT('',(0.,0.,0.));
#119 = DIRECTION('',(0.,0.,1.));
#120 = DIRECTION('',(1.,0.,0.));
#121 = PCURVE('',#94,#122);
#122 = DEFINITIONAL_REPRESENTATION('',(#123),#127);
#123 = CIRCLE('',#124,20.);
#124 = AXIS2_PLACEMENT_2D('',#125,#126);
#125 = CARTESIAN_POINT('',(8.751616848252E-16,-1.604946055186E-15));
#126 = DIRECTION('',(1.,0.));
#127 = ( GEOMETRIC_REPRESENTATION_CONTEXT(2) 
PARAMETRIC_REPRESENTATION_CONTEXT() REPRESENTATION_CONTEXT('2D SPACE',''
  ) );
#128 = PCURVE('',#129,#134);
#129 = CYLINDRICAL_SURFACE('',#130,20.);
#130 = AXIS2_PLACEMENT_3D('',#131,#132,#133);
#131 = CARTESIAN_POINT('',(0.,0.,0.));
#132 = DIRECTION('',(-0.,-0.,-1.));
#133 = DIRECTION('',(1.,0.,0.));
#134 = DEFINITIONAL_REPRESENTATION('',(#135),#139);
#135 = LINE('',#136,#137);
#136 = CARTESIAN_POINT('',(-0.,0.));
#137 = VECTOR('',#138,1.);
#138 = DIRECTION('',(-1.,0.));
#139 = ( GEOMETRIC_REPRESENTATION_CONTEXT(2) 
PARAMETRIC_REPRESENTATION_CONTEXT() REPRESENTATION_CONTEXT('2D SPACE',''
  ) );
#140 = ADVANCED_FACE('',(#141,#144),#66,.T.);
#141 = FACE_BOUND('',#142,.T.);
#142 = EDGE_LOOP('',(#143));
#143 = ORIENTED_EDGE('',*,*,#51,.T.);
#144 = FACE_BOUND('',#145,.T.);
#145 = EDGE_LOOP('',(#146));
#146 = ORIENTED_EDGE('',*,*,#147,.F.);
#147 = EDGE_CURVE('',#148,#148,#150,.T.);
#148 = VERTEX_POINT('',#149);
#149 = CARTESIAN_POINT('',(20.,0.,100.));
#150 = SURFACE_CURVE('',#151,(#156,#163),.PCURVE_S1.);
#151 = CIRCLE('',#152,20.);
#152 = AXIS2_PLACEMENT_3D('',#153,#154,#155);
#153 = CARTESIAN_POINT('',(0.,0.,100.));
#154 = DIRECTION('',(0.,0.,1.));
#155 = DIRECTION('',(1.,0.,0.));
#156 = PCURVE('',#66,#157);
#157 = DEFINITIONAL_REPRESENTATION('',(#158),#162);
#158 = CIRCLE('',#159,20.);
#159 = AXIS2_PLACEMENT_2D('',#160,#161);
#160 = CARTESIAN_POINT('',(8.751616848252E-16,-1.604946055186E-15));
#161 = DIRECTION('',(1.,0.));
#162 = ( GEOMETRIC_REPRESENTATION_CONTEXT(2) 
PARAMETRIC_REPRESENTATION_CONTEXT() REPRESENTATION_CONTEXT('2D SPACE',''
  ) );
#163 = PCURVE('',#129,#164);
#164 = DEFINITIONAL_REPRESENTATION('',(#165),#169);
#165 = LINE('',#166,#167);
#166 = CARTESIAN_POINT('',(-0.,-100.));
#167 = VECTOR('',#168,1.);
#168 = DIRECTION('',(-1.,0.));
#169 = ( GEOMETRIC_REPRESENTATION_CONTEXT(2) 
PARAMETRIC_REPRESENTATION_CONTEXT() REPRESENTATION_CONTEXT('2D SPACE',''
  ) );
#170 = ADVANCED_FACE('',(#171),#129,.F.);
#171 = FACE_BOUND('',#172,.T.);
#172 = EDGE_LOOP('',(#173,#194,#195,#196));
#173 = ORIENTED_EDGE('',*,*,#174,.T.);
#174 = EDGE_CURVE('',#113,#148,#175,.T.);
#175 = SEAM_CURVE('',#176,(#180,#187),.PCURVE_S1.);
#176 = LINE('',#177,#178);
#177 = CARTESIAN_POINT('',(20.,0.,0.));
#178 = VECTOR('',#179,1.);
#179 = DIRECTION('',(0.,0.,1.));
#180 = PCURVE('',#129,#181);
#181 = DEFINITIONAL_REPRESENTATION('',(#182),#186);
#182 = LINE('',#183,#184);
#183 = CARTESIAN_POINT('',(-0.,0.));
#184 = VECTOR('',#185,1.);
#185 = DIRECTION('',(-0.,-1.));
#186 = ( GEOMETRIC_REPRESENTATION_CONTEXT(2) 
PARAMETRIC_REPRESENTATION_CONTEXT() REPRESENTATION_CONTEXT('2D SPACE',''
  ) );
#187 = PCURVE('',#129,#188);
#188 = DEFINITIONAL_REPRESENTATION('',(#189),#193);
#189 = LINE('',#190,#191);
#190 = CARTESIAN_POINT('',(-6.28318530718,0.));
#191 = VECTOR('',#192,1.);
#192 = DIRECTION('',(-0.,-1.));
#193 = ( GEOMETRIC_REPRESENTATION_CONTEXT(2) 
PARAMETRIC_REPRESENTATION_CONTEXT() REPRESENTATION_CONTEXT('2D SPACE',''
  ) );
#194 = ORIENTED_EDGE('',*,*,#147,.T.);
#195 = ORIENTED_EDGE('',*,*,#174,.F.);
#196 = ORIENTED_EDGE('',*,*,#112,.F.);
#197 = ( GEOMETRIC_REPRESENTATION_CONTEXT(3) 
GLOBAL_UNCERTAINTY_ASSIGNED_CONTEXT((#201)) GLOBAL_UNIT_ASSIGNED_CONTEXT
((#198,#199,#200)) REPRESENTATION_CONTEXT('Context #1',
  '3D Context with UNIT and UNCERTAINTY') );
#198 = ( LENGTH_UNIT() NAMED_UNIT(*) SI_UNIT(.MILLI.,.METRE.) );
#199 = ( NAMED_UNIT(*) PLANE_ANGLE_UNIT() SI_UNIT($,.RADIAN.) );
#200 = ( NAMED_UNIT(*) SI_UNIT($,.STERADIAN.) SOLID_ANGLE_UNIT() );
#201 = UNCERTAINTY_MEASURE_WITH_UNIT(LENGTH_MEASURE(1.E-07),#198,
  'distance_accuracy_value','confusion accuracy');
#202 = PRODUCT_RELATED_PRODUCT_CATEGORY('part',$,(#7));

/* --- fixture additions: a NON-IDENTITY leading placement, so a range that
   starts after it can only land the solids correctly by replaying it --- */
#900001 = CARTESIAN_POINT('offset',(37.,-11.,5.));
#900002 = DIRECTION('offset-z',(0.,1.,0.));
#900003 = DIRECTION('offset-x',(1.,0.,0.));
#900004 = AXIS2_PLACEMENT_3D('offset-placement',#900001,#900002,#900003);

/* --- copy of the tube solid, entity ids offset by 100000 --- */
#100011 = AXIS2_PLACEMENT_3D('',#100012,#100013,#100014);
#100012 = CARTESIAN_POINT('',(0.,0.,0.));
#100013 = DIRECTION('',(0.,0.,1.));
#100014 = DIRECTION('',(1.,0.,-0.));
#100015 = MANIFOLD_SOLID_BREP('',#100016);
#100016 = CLOSED_SHELL('',(#100017,#100105,#100140,#100170));
#100017 = ADVANCED_FACE('',(#100018),#100032,.T.);
#100018 = FACE_BOUND('',#100019,.F.);
#100019 = EDGE_LOOP('',(#100020,#100050,#100077,#100078));
#100020 = ORIENTED_EDGE('',*,*,#100021,.T.);
#100021 = EDGE_CURVE('',#100022,#100024,#100026,.T.);
#100022 = VERTEX_POINT('',#100023);
#100023 = CARTESIAN_POINT('',(25.,0.,0.));
#100024 = VERTEX_POINT('',#100025);
#100025 = CARTESIAN_POINT('',(25.,0.,100.));
#100026 = SEAM_CURVE('',#100027,(#100031,#100043),.PCURVE_S1.);
#100027 = LINE('',#100028,#100029);
#100028 = CARTESIAN_POINT('',(25.,0.,0.));
#100029 = VECTOR('',#100030,1.);
#100030 = DIRECTION('',(0.,0.,1.));
#100031 = PCURVE('',#100032,#100037);
#100032 = CYLINDRICAL_SURFACE('',#100033,25.);
#100033 = AXIS2_PLACEMENT_3D('',#100034,#100035,#100036);
#100034 = CARTESIAN_POINT('',(0.,0.,0.));
#100035 = DIRECTION('',(-0.,-0.,-1.));
#100036 = DIRECTION('',(1.,0.,0.));
#100037 = DEFINITIONAL_REPRESENTATION('',(#100038),#100042);
#100038 = LINE('',#100039,#100040);
#100039 = CARTESIAN_POINT('',(-0.,0.));
#100040 = VECTOR('',#100041,1.);
#100041 = DIRECTION('',(-0.,-1.));
#100043 = PCURVE('',#100032,#100044);
#100044 = DEFINITIONAL_REPRESENTATION('',(#100045),#100049);
#100045 = LINE('',#100046,#100047);
#100046 = CARTESIAN_POINT('',(-6.28318530718,0.));
#100047 = VECTOR('',#100048,1.);
#100048 = DIRECTION('',(-0.,-1.));
#100050 = ORIENTED_EDGE('',*,*,#100051,.T.);
#100051 = EDGE_CURVE('',#100024,#100024,#100052,.T.);
#100052 = SURFACE_CURVE('',#100053,(#100058,#100065),.PCURVE_S1.);
#100053 = CIRCLE('',#100054,25.);
#100054 = AXIS2_PLACEMENT_3D('',#100055,#100056,#100057);
#100055 = CARTESIAN_POINT('',(0.,0.,100.));
#100056 = DIRECTION('',(0.,0.,1.));
#100057 = DIRECTION('',(1.,0.,0.));
#100058 = PCURVE('',#100032,#100059);
#100059 = DEFINITIONAL_REPRESENTATION('',(#100060),#100064);
#100060 = LINE('',#100061,#100062);
#100061 = CARTESIAN_POINT('',(-0.,-100.));
#100062 = VECTOR('',#100063,1.);
#100063 = DIRECTION('',(-1.,0.));
#100065 = PCURVE('',#100066,#100071);
#100066 = PLANE('',#100067);
#100067 = AXIS2_PLACEMENT_3D('',#100068,#100069,#100070);
#100068 = CARTESIAN_POINT('',(-8.751616848252E-16,1.604946055186E-15,100.));
#100069 = DIRECTION('',(0.,0.,1.));
#100070 = DIRECTION('',(1.,0.,-0.));
#100071 = DEFINITIONAL_REPRESENTATION('',(#100072),#100076);
#100072 = CIRCLE('',#100073,25.);
#100073 = AXIS2_PLACEMENT_2D('',#100074,#100075);
#100074 = CARTESIAN_POINT('',(8.751616848252E-16,-1.604946055186E-15));
#100075 = DIRECTION('',(1.,0.));
#100077 = ORIENTED_EDGE('',*,*,#100021,.F.);
#100078 = ORIENTED_EDGE('',*,*,#100079,.F.);
#100079 = EDGE_CURVE('',#100022,#100022,#100080,.T.);
#100080 = SURFACE_CURVE('',#100081,(#100086,#100093),.PCURVE_S1.);
#100081 = CIRCLE('',#100082,25.);
#100082 = AXIS2_PLACEMENT_3D('',#100083,#100084,#100085);
#100083 = CARTESIAN_POINT('',(0.,0.,0.));
#100084 = DIRECTION('',(0.,0.,1.));
#100085 = DIRECTION('',(1.,0.,0.));
#100086 = PCURVE('',#100032,#100087);
#100087 = DEFINITIONAL_REPRESENTATION('',(#100088),#100092);
#100088 = LINE('',#100089,#100090);
#100089 = CARTESIAN_POINT('',(-0.,0.));
#100090 = VECTOR('',#100091,1.);
#100091 = DIRECTION('',(-1.,0.));
#100093 = PCURVE('',#100094,#100099);
#100094 = PLANE('',#100095);
#100095 = AXIS2_PLACEMENT_3D('',#100096,#100097,#100098);
#100096 = CARTESIAN_POINT('',(-8.751616848252E-16,1.604946055186E-15,0.));
#100097 = DIRECTION('',(0.,0.,1.));
#100098 = DIRECTION('',(1.,0.,-0.));
#100099 = DEFINITIONAL_REPRESENTATION('',(#100100),#100104);
#100100 = CIRCLE('',#100101,25.);
#100101 = AXIS2_PLACEMENT_2D('',#100102,#100103);
#100102 = CARTESIAN_POINT('',(8.751616848252E-16,-1.604946055186E-15));
#100103 = DIRECTION('',(1.,0.));
#100105 = ADVANCED_FACE('',(#100106,#100109),#100094,.F.);
#100106 = FACE_BOUND('',#100107,.F.);
#100107 = EDGE_LOOP('',(#100108));
#100108 = ORIENTED_EDGE('',*,*,#100079,.T.);
#100109 = FACE_BOUND('',#100110,.F.);
#100110 = EDGE_LOOP('',(#100111));
#100111 = ORIENTED_EDGE('',*,*,#100112,.F.);
#100112 = EDGE_CURVE('',#100113,#100113,#100115,.T.);
#100113 = VERTEX_POINT('',#100114);
#100114 = CARTESIAN_POINT('',(20.,0.,0.));
#100115 = SURFACE_CURVE('',#100116,(#100121,#100128),.PCURVE_S1.);
#100116 = CIRCLE('',#100117,20.);
#100117 = AXIS2_PLACEMENT_3D('',#100118,#100119,#100120);
#100118 = CARTESIAN_POINT('',(0.,0.,0.));
#100119 = DIRECTION('',(0.,0.,1.));
#100120 = DIRECTION('',(1.,0.,0.));
#100121 = PCURVE('',#100094,#100122);
#100122 = DEFINITIONAL_REPRESENTATION('',(#100123),#100127);
#100123 = CIRCLE('',#100124,20.);
#100124 = AXIS2_PLACEMENT_2D('',#100125,#100126);
#100125 = CARTESIAN_POINT('',(8.751616848252E-16,-1.604946055186E-15));
#100126 = DIRECTION('',(1.,0.));
#100128 = PCURVE('',#100129,#100134);
#100129 = CYLINDRICAL_SURFACE('',#100130,20.);
#100130 = AXIS2_PLACEMENT_3D('',#100131,#100132,#100133);
#100131 = CARTESIAN_POINT('',(0.,0.,0.));
#100132 = DIRECTION('',(-0.,-0.,-1.));
#100133 = DIRECTION('',(1.,0.,0.));
#100134 = DEFINITIONAL_REPRESENTATION('',(#100135),#100139);
#100135 = LINE('',#100136,#100137);
#100136 = CARTESIAN_POINT('',(-0.,0.));
#100137 = VECTOR('',#100138,1.);
#100138 = DIRECTION('',(-1.,0.));
#100140 = ADVANCED_FACE('',(#100141,#100144),#100066,.T.);
#100141 = FACE_BOUND('',#100142,.T.);
#100142 = EDGE_LOOP('',(#100143));
#100143 = ORIENTED_EDGE('',*,*,#100051,.T.);
#100144 = FACE_BOUND('',#100145,.T.);
#100145 = EDGE_LOOP('',(#100146));
#100146 = ORIENTED_EDGE('',*,*,#100147,.F.);
#100147 = EDGE_CURVE('',#100148,#100148,#100150,.T.);
#100148 = VERTEX_POINT('',#100149);
#100149 = CARTESIAN_POINT('',(20.,0.,100.));
#100150 = SURFACE_CURVE('',#100151,(#100156,#100163),.PCURVE_S1.);
#100151 = CIRCLE('',#100152,20.);
#100152 = AXIS2_PLACEMENT_3D('',#100153,#100154,#100155);
#100153 = CARTESIAN_POINT('',(0.,0.,100.));
#100154 = DIRECTION('',(0.,0.,1.));
#100155 = DIRECTION('',(1.,0.,0.));
#100156 = PCURVE('',#100066,#100157);
#100157 = DEFINITIONAL_REPRESENTATION('',(#100158),#100162);
#100158 = CIRCLE('',#100159,20.);
#100159 = AXIS2_PLACEMENT_2D('',#100160,#100161);
#100160 = CARTESIAN_POINT('',(8.751616848252E-16,-1.604946055186E-15));
#100161 = DIRECTION('',(1.,0.));
#100163 = PCURVE('',#100129,#100164);
#100164 = DEFINITIONAL_REPRESENTATION('',(#100165),#100169);
#100165 = LINE('',#100166,#100167);
#100166 = CARTESIAN_POINT('',(-0.,-100.));
#100167 = VECTOR('',#100168,1.);
#100168 = DIRECTION('',(-1.,0.));
#100170 = ADVANCED_FACE('',(#100171),#100129,.F.);
#100171 = FACE_BOUND('',#100172,.T.);
#100172 = EDGE_LOOP('',(#100173,#100194,#100195,#100196));
#100173 = ORIENTED_EDGE('',*,*,#100174,.T.);
#100174 = EDGE_CURVE('',#100113,#100148,#100175,.T.);
#100175 = SEAM_CURVE('',#100176,(#100180,#100187),.PCURVE_S1.);
#100176 = LINE('',#100177,#100178);
#100177 = CARTESIAN_POINT('',(20.,0.,0.));
#100178 = VECTOR('',#100179,1.);
#100179 = DIRECTION('',(0.,0.,1.));
#100180 = PCURVE('',#100129,#100181);
#100181 = DEFINITIONAL_REPRESENTATION('',(#100182),#100186);
#100182 = LINE('',#100183,#100184);
#100183 = CARTESIAN_POINT('',(-0.,0.));
#100184 = VECTOR('',#100185,1.);
#100185 = DIRECTION('',(-0.,-1.));
#100187 = PCURVE('',#100129,#100188);
#100188 = DEFINITIONAL_REPRESENTATION('',(#100189),#100193);
#100189 = LINE('',#100190,#100191);
#100190 = CARTESIAN_POINT('',(-6.28318530718,0.));
#100191 = VECTOR('',#100192,1.);
#100192 = DIRECTION('',(-0.,-1.));
#100194 = ORIENTED_EDGE('',*,*,#100147,.T.);
#100195 = ORIENTED_EDGE('',*,*,#100174,.F.);
#100196 = ORIENTED_EDGE('',*,*,#100112,.F.);
#100198 = ( LENGTH_UNIT() NAMED_UNIT(*) SI_UNIT(.MILLI.,.METRE.) );
#100199 = ( NAMED_UNIT(*) PLANE_ANGLE_UNIT() SI_UNIT($,.RADIAN.) );
#100200 = ( NAMED_UNIT(*) SI_UNIT($,.STERADIAN.) SOLID_ANGLE_UNIT() );
#100201 = UNCERTAINTY_MEASURE_WITH_UNIT(LENGTH_MEASURE(1.E-07),#100198,
  'distance_accuracy_value','confusion accuracy');

/* --- copy of the tube solid, entity ids offset by 200000 --- */
#200011 = AXIS2_PLACEMENT_3D('',#200012,#200013,#200014);
#200012 = CARTESIAN_POINT('',(0.,0.,0.));
#200013 = DIRECTION('',(0.,0.,1.));
#200014 = DIRECTION('',(1.,0.,-0.));
#200015 = MANIFOLD_SOLID_BREP('',#200016);
#200016 = CLOSED_SHELL('',(#200017,#200105,#200140,#200170));
#200017 = ADVANCED_FACE('',(#200018),#200032,.T.);
#200018 = FACE_BOUND('',#200019,.F.);
#200019 = EDGE_LOOP('',(#200020,#200050,#200077,#200078));
#200020 = ORIENTED_EDGE('',*,*,#200021,.T.);
#200021 = EDGE_CURVE('',#200022,#200024,#200026,.T.);
#200022 = VERTEX_POINT('',#200023);
#200023 = CARTESIAN_POINT('',(25.,0.,0.));
#200024 = VERTEX_POINT('',#200025);
#200025 = CARTESIAN_POINT('',(25.,0.,100.));
#200026 = SEAM_CURVE('',#200027,(#200031,#200043),.PCURVE_S1.);
#200027 = LINE('',#200028,#200029);
#200028 = CARTESIAN_POINT('',(25.,0.,0.));
#200029 = VECTOR('',#200030,1.);
#200030 = DIRECTION('',(0.,0.,1.));
#200031 = PCURVE('',#200032,#200037);
#200032 = CYLINDRICAL_SURFACE('',#200033,25.);
#200033 = AXIS2_PLACEMENT_3D('',#200034,#200035,#200036);
#200034 = CARTESIAN_POINT('',(0.,0.,0.));
#200035 = DIRECTION('',(-0.,-0.,-1.));
#200036 = DIRECTION('',(1.,0.,0.));
#200037 = DEFINITIONAL_REPRESENTATION('',(#200038),#200042);
#200038 = LINE('',#200039,#200040);
#200039 = CARTESIAN_POINT('',(-0.,0.));
#200040 = VECTOR('',#200041,1.);
#200041 = DIRECTION('',(-0.,-1.));
#200043 = PCURVE('',#200032,#200044);
#200044 = DEFINITIONAL_REPRESENTATION('',(#200045),#200049);
#200045 = LINE('',#200046,#200047);
#200046 = CARTESIAN_POINT('',(-6.28318530718,0.));
#200047 = VECTOR('',#200048,1.);
#200048 = DIRECTION('',(-0.,-1.));
#200050 = ORIENTED_EDGE('',*,*,#200051,.T.);
#200051 = EDGE_CURVE('',#200024,#200024,#200052,.T.);
#200052 = SURFACE_CURVE('',#200053,(#200058,#200065),.PCURVE_S1.);
#200053 = CIRCLE('',#200054,25.);
#200054 = AXIS2_PLACEMENT_3D('',#200055,#200056,#200057);
#200055 = CARTESIAN_POINT('',(0.,0.,100.));
#200056 = DIRECTION('',(0.,0.,1.));
#200057 = DIRECTION('',(1.,0.,0.));
#200058 = PCURVE('',#200032,#200059);
#200059 = DEFINITIONAL_REPRESENTATION('',(#200060),#200064);
#200060 = LINE('',#200061,#200062);
#200061 = CARTESIAN_POINT('',(-0.,-100.));
#200062 = VECTOR('',#200063,1.);
#200063 = DIRECTION('',(-1.,0.));
#200065 = PCURVE('',#200066,#200071);
#200066 = PLANE('',#200067);
#200067 = AXIS2_PLACEMENT_3D('',#200068,#200069,#200070);
#200068 = CARTESIAN_POINT('',(-8.751616848252E-16,1.604946055186E-15,100.));
#200069 = DIRECTION('',(0.,0.,1.));
#200070 = DIRECTION('',(1.,0.,-0.));
#200071 = DEFINITIONAL_REPRESENTATION('',(#200072),#200076);
#200072 = CIRCLE('',#200073,25.);
#200073 = AXIS2_PLACEMENT_2D('',#200074,#200075);
#200074 = CARTESIAN_POINT('',(8.751616848252E-16,-1.604946055186E-15));
#200075 = DIRECTION('',(1.,0.));
#200077 = ORIENTED_EDGE('',*,*,#200021,.F.);
#200078 = ORIENTED_EDGE('',*,*,#200079,.F.);
#200079 = EDGE_CURVE('',#200022,#200022,#200080,.T.);
#200080 = SURFACE_CURVE('',#200081,(#200086,#200093),.PCURVE_S1.);
#200081 = CIRCLE('',#200082,25.);
#200082 = AXIS2_PLACEMENT_3D('',#200083,#200084,#200085);
#200083 = CARTESIAN_POINT('',(0.,0.,0.));
#200084 = DIRECTION('',(0.,0.,1.));
#200085 = DIRECTION('',(1.,0.,0.));
#200086 = PCURVE('',#200032,#200087);
#200087 = DEFINITIONAL_REPRESENTATION('',(#200088),#200092);
#200088 = LINE('',#200089,#200090);
#200089 = CARTESIAN_POINT('',(-0.,0.));
#200090 = VECTOR('',#200091,1.);
#200091 = DIRECTION('',(-1.,0.));
#200093 = PCURVE('',#200094,#200099);
#200094 = PLANE('',#200095);
#200095 = AXIS2_PLACEMENT_3D('',#200096,#200097,#200098);
#200096 = CARTESIAN_POINT('',(-8.751616848252E-16,1.604946055186E-15,0.));
#200097 = DIRECTION('',(0.,0.,1.));
#200098 = DIRECTION('',(1.,0.,-0.));
#200099 = DEFINITIONAL_REPRESENTATION('',(#200100),#200104);
#200100 = CIRCLE('',#200101,25.);
#200101 = AXIS2_PLACEMENT_2D('',#200102,#200103);
#200102 = CARTESIAN_POINT('',(8.751616848252E-16,-1.604946055186E-15));
#200103 = DIRECTION('',(1.,0.));
#200105 = ADVANCED_FACE('',(#200106,#200109),#200094,.F.);
#200106 = FACE_BOUND('',#200107,.F.);
#200107 = EDGE_LOOP('',(#200108));
#200108 = ORIENTED_EDGE('',*,*,#200079,.T.);
#200109 = FACE_BOUND('',#200110,.F.);
#200110 = EDGE_LOOP('',(#200111));
#200111 = ORIENTED_EDGE('',*,*,#200112,.F.);
#200112 = EDGE_CURVE('',#200113,#200113,#200115,.T.);
#200113 = VERTEX_POINT('',#200114);
#200114 = CARTESIAN_POINT('',(20.,0.,0.));
#200115 = SURFACE_CURVE('',#200116,(#200121,#200128),.PCURVE_S1.);
#200116 = CIRCLE('',#200117,20.);
#200117 = AXIS2_PLACEMENT_3D('',#200118,#200119,#200120);
#200118 = CARTESIAN_POINT('',(0.,0.,0.));
#200119 = DIRECTION('',(0.,0.,1.));
#200120 = DIRECTION('',(1.,0.,0.));
#200121 = PCURVE('',#200094,#200122);
#200122 = DEFINITIONAL_REPRESENTATION('',(#200123),#200127);
#200123 = CIRCLE('',#200124,20.);
#200124 = AXIS2_PLACEMENT_2D('',#200125,#200126);
#200125 = CARTESIAN_POINT('',(8.751616848252E-16,-1.604946055186E-15));
#200126 = DIRECTION('',(1.,0.));
#200128 = PCURVE('',#200129,#200134);
#200129 = CYLINDRICAL_SURFACE('',#200130,20.);
#200130 = AXIS2_PLACEMENT_3D('',#200131,#200132,#200133);
#200131 = CARTESIAN_POINT('',(0.,0.,0.));
#200132 = DIRECTION('',(-0.,-0.,-1.));
#200133 = DIRECTION('',(1.,0.,0.));
#200134 = DEFINITIONAL_REPRESENTATION('',(#200135),#200139);
#200135 = LINE('',#200136,#200137);
#200136 = CARTESIAN_POINT('',(-0.,0.));
#200137 = VECTOR('',#200138,1.);
#200138 = DIRECTION('',(-1.,0.));
#200140 = ADVANCED_FACE('',(#200141,#200144),#200066,.T.);
#200141 = FACE_BOUND('',#200142,.T.);
#200142 = EDGE_LOOP('',(#200143));
#200143 = ORIENTED_EDGE('',*,*,#200051,.T.);
#200144 = FACE_BOUND('',#200145,.T.);
#200145 = EDGE_LOOP('',(#200146));
#200146 = ORIENTED_EDGE('',*,*,#200147,.F.);
#200147 = EDGE_CURVE('',#200148,#200148,#200150,.T.);
#200148 = VERTEX_POINT('',#200149);
#200149 = CARTESIAN_POINT('',(20.,0.,100.));
#200150 = SURFACE_CURVE('',#200151,(#200156,#200163),.PCURVE_S1.);
#200151 = CIRCLE('',#200152,20.);
#200152 = AXIS2_PLACEMENT_3D('',#200153,#200154,#200155);
#200153 = CARTESIAN_POINT('',(0.,0.,100.));
#200154 = DIRECTION('',(0.,0.,1.));
#200155 = DIRECTION('',(1.,0.,0.));
#200156 = PCURVE('',#200066,#200157);
#200157 = DEFINITIONAL_REPRESENTATION('',(#200158),#200162);
#200158 = CIRCLE('',#200159,20.);
#200159 = AXIS2_PLACEMENT_2D('',#200160,#200161);
#200160 = CARTESIAN_POINT('',(8.751616848252E-16,-1.604946055186E-15));
#200161 = DIRECTION('',(1.,0.));
#200163 = PCURVE('',#200129,#200164);
#200164 = DEFINITIONAL_REPRESENTATION('',(#200165),#200169);
#200165 = LINE('',#200166,#200167);
#200166 = CARTESIAN_POINT('',(-0.,-100.));
#200167 = VECTOR('',#200168,1.);
#200168 = DIRECTION('',(-1.,0.));
#200170 = ADVANCED_FACE('',(#200171),#200129,.F.);
#200171 = FACE_BOUND('',#200172,.T.);
#200172 = EDGE_LOOP('',(#200173,#200194,#200195,#200196));
#200173 = ORIENTED_EDGE('',*,*,#200174,.T.);
#200174 = EDGE_CURVE('',#200113,#200148,#200175,.T.);
#200175 = SEAM_CURVE('',#200176,(#200180,#200187),.PCURVE_S1.);
#200176 = LINE('',#200177,#200178);
#200177 = CARTESIAN_POINT('',(20.,0.,0.));
#200178 = VECTOR('',#200179,1.);
#200179 = DIRECTION('',(0.,0.,1.));
#200180 = PCURVE('',#200129,#200181);
#200181 = DEFINITIONAL_REPRESENTATION('',(#200182),#200186);
#200182 = LINE('',#200183,#200184);
#200183 = CARTESIAN_POINT('',(-0.,0.));
#200184 = VECTOR('',#200185,1.);
#200185 = DIRECTION('',(-0.,-1.));
#200187 = PCURVE('',#200129,#200188);
#200188 = DEFINITIONAL_REPRESENTATION('',(#200189),#200193);
#200189 = LINE('',#200190,#200191);
#200190 = CARTESIAN_POINT('',(-6.28318530718,0.));
#200191 = VECTOR('',#200192,1.);
#200192 = DIRECTION('',(-0.,-1.));
#200194 = ORIENTED_EDGE('',*,*,#200147,.T.);
#200195 = ORIENTED_EDGE('',*,*,#200174,.F.);
#200196 = ORIENTED_EDGE('',*,*,#200112,.F.);
#200198 = ( LENGTH_UNIT() NAMED_UNIT(*) SI_UNIT(.MILLI.,.METRE.) );
#200199 = ( NAMED_UNIT(*) PLANE_ANGLE_UNIT() SI_UNIT($,.RADIAN.) );
#200200 = ( NAMED_UNIT(*) SI_UNIT($,.STERADIAN.) SOLID_ANGLE_UNIT() );
#200201 = UNCERTAINTY_MEASURE_WITH_UNIT(LENGTH_MEASURE(1.E-07),#200198,
  'distance_accuracy_value','confusion accuracy');
ENDSEC;
END-ISO-10303-21;
