ISO-10303-21;
HEADER;
FILE_DESCRIPTION(('ViewDefinition [CoordinationView]'),'2;1');
FILE_NAME('ifc4x3_road_geometry.ifc','2026-09-25T00:00:00',(''),(''),'','','');
FILE_SCHEMA(('IFC4X3_RC2'));
ENDSEC;
DATA;
#1=IFCPROJECT('R000000000000000000001',$,'Road Project',$,$,$,$,(#20),#7);
#7=IFCUNITASSIGNMENT((#8,#9));
#8=IFCSIUNIT(*,.LENGTHUNIT.,$,.METRE.);
#9=IFCSIUNIT(*,.PLANEANGLEUNIT.,$,.RADIAN.);
#20=IFCGEOMETRICREPRESENTATIONCONTEXT($,'Model',3,1.E-5,#21,$);
#21=IFCAXIS2PLACEMENT3D(#22,$,$);
#22=IFCCARTESIANPOINT((0.,0.,0.));
#24=IFCSITE('R000000000000000000024',$,'Site',$,$,#25,$,$,.ELEMENT.,$,$,$,$,$);
#25=IFCLOCALPLACEMENT($,#21);
#30=IFCROAD('R000000000000000000030',$,'Road',$,$,#31,$,$,.ELEMENT.);
#31=IFCLOCALPLACEMENT(#25,#21);
#37=IFCFACILITYPART('R000000000000000000037',$,'Segment',$,$,#38,$,$,.ELEMENT.,IFCROADPARTTYPEENUM(.ROADSEGMENT.),.LONGITUDINAL.);
#38=IFCLOCALPLACEMENT(#31,#21);
#40=IFCRELAGGREGATES('R000000000000000000040',$,$,$,#1,(#24));
#41=IFCRELAGGREGATES('R000000000000000000041',$,$,$,#24,(#30));
#42=IFCRELAGGREGATES('R000000000000000000042',$,$,$,#30,(#37));
#43=IFCRELCONTAINEDINSPATIALSTRUCTURE('R000000000000000000043',$,$,$,(#100,#200,#300),#37);
#44=IFCCOLOURRGB($,0.4,0.4,0.4);
#45=IFCSURFACESTYLESHADING(#44,$);
#46=IFCSURFACESTYLE('Asphalt',.BOTH.,(#45));
#47=IFCPRESENTATIONSTYLEASSIGNMENT((#46));
#48=IFCPROPERTYSINGLEVALUE('Material',$,IFCLABEL('Asphalt'),$);
#49=IFCPROPERTYSET('R000000000000000000049',$,'Pset_RoadFixture',$,(#48));
#50=IFCRELDEFINESBYPROPERTIES('R000000000000000000050',$,$,$,(#100,#200,#300),#49);
#100=IFCPAVEMENT('R000000000000000000100',$,'Pavement A','flexible',$,#101,#104,$,.FLEXIBLE.);
#101=IFCLOCALPLACEMENT(#38,#102);
#102=IFCAXIS2PLACEMENT3D(#103,$,$);
#103=IFCCARTESIANPOINT((0.0,0.,0.));
#104=IFCPRODUCTDEFINITIONSHAPE($,$,(#105));
#105=IFCSHAPEREPRESENTATION(#20,'Body','Brep',(#106));
#106=IFCFACETEDBREP(#107);
#108=IFCSTYLEDITEM(#106,(#47),$);
#110=IFCCARTESIANPOINT((0.,0.,0.));
#111=IFCCARTESIANPOINT((1.,0.,0.));
#112=IFCCARTESIANPOINT((0.,1.,0.));
#113=IFCCARTESIANPOINT((0.,0.,1.));
#122=IFCPOLYLOOP((#110,#112,#111));
#121=IFCFACEOUTERBOUND(#122,.T.);
#120=IFCFACE((#121));
#125=IFCPOLYLOOP((#110,#111,#113));
#124=IFCFACEOUTERBOUND(#125,.T.);
#123=IFCFACE((#124));
#128=IFCPOLYLOOP((#110,#113,#112));
#127=IFCFACEOUTERBOUND(#128,.T.);
#126=IFCFACE((#127));
#131=IFCPOLYLOOP((#111,#112,#113));
#130=IFCFACEOUTERBOUND(#131,.T.);
#129=IFCFACE((#130));
#107=IFCCLOSEDSHELL((#120,#123,#126,#129));
#200=IFCPAVEMENT('R000000000000000000200',$,'Pavement B','rigid',$,#201,#204,$,IFCPAVEMENTTYPEENUM(.RIGID.));
#201=IFCLOCALPLACEMENT(#38,#202);
#202=IFCAXIS2PLACEMENT3D(#203,$,$);
#203=IFCCARTESIANPOINT((2.0,0.,0.));
#204=IFCPRODUCTDEFINITIONSHAPE($,$,(#205));
#205=IFCSHAPEREPRESENTATION(#20,'Body','Brep',(#206));
#206=IFCFACETEDBREP(#207);
#208=IFCSTYLEDITEM(#206,(#47),$);
#210=IFCCARTESIANPOINT((0.,0.,0.));
#211=IFCCARTESIANPOINT((1.,0.,0.));
#212=IFCCARTESIANPOINT((0.,1.,0.));
#213=IFCCARTESIANPOINT((0.,0.,1.));
#222=IFCPOLYLOOP((#210,#212,#211));
#221=IFCFACEOUTERBOUND(#222,.T.);
#220=IFCFACE((#221));
#225=IFCPOLYLOOP((#210,#211,#213));
#224=IFCFACEOUTERBOUND(#225,.T.);
#223=IFCFACE((#224));
#228=IFCPOLYLOOP((#210,#213,#212));
#227=IFCFACEOUTERBOUND(#228,.T.);
#226=IFCFACE((#227));
#231=IFCPOLYLOOP((#211,#212,#213));
#230=IFCFACEOUTERBOUND(#231,.T.);
#229=IFCFACE((#230));
#207=IFCCLOSEDSHELL((#220,#223,#226,#229));
#300=IFCKERB('R000000000000000000300',$,'Kerb','kerb',$,#301,#304,$,$);
#301=IFCLOCALPLACEMENT(#38,#302);
#302=IFCAXIS2PLACEMENT3D(#303,$,$);
#303=IFCCARTESIANPOINT((4.0,0.,0.));
#304=IFCPRODUCTDEFINITIONSHAPE($,$,(#305));
#305=IFCSHAPEREPRESENTATION(#20,'Body','Brep',(#306));
#306=IFCFACETEDBREP(#307);
#308=IFCSTYLEDITEM(#306,(#47),$);
#310=IFCCARTESIANPOINT((0.,0.,0.));
#311=IFCCARTESIANPOINT((1.,0.,0.));
#312=IFCCARTESIANPOINT((0.,1.,0.));
#313=IFCCARTESIANPOINT((0.,0.,1.));
#322=IFCPOLYLOOP((#310,#312,#311));
#321=IFCFACEOUTERBOUND(#322,.T.);
#320=IFCFACE((#321));
#325=IFCPOLYLOOP((#310,#311,#313));
#324=IFCFACEOUTERBOUND(#325,.T.);
#323=IFCFACE((#324));
#328=IFCPOLYLOOP((#310,#313,#312));
#327=IFCFACEOUTERBOUND(#328,.T.);
#326=IFCFACE((#327));
#331=IFCPOLYLOOP((#311,#312,#313));
#330=IFCFACEOUTERBOUND(#331,.T.);
#329=IFCFACE((#330));
#307=IFCCLOSEDSHELL((#320,#323,#326,#329));
ENDSEC;
END-ISO-10303-21;
