ISO-10303-21;
HEADER;
/* Generated by software containing ST-Developer
 * from STEP Tools, Inc. (www.steptools.com) 
 */

FILE_DESCRIPTION(
/* description */ (''),
/* implementation_level */ '2;1');

FILE_NAME(
/* name */ 'C:/Users/Robert/Desktop/Orbiter v1.1 Gear 7.5.step',
/* time_stamp */ '2020-10-11T15:34:29+03:00',
/* author */ (''),
/* organization */ (''),
/* preprocessor_version */ 'ST-DEVELOPER v18.1',
/* originating_system */ 'Autodesk Translation Framework v9.3.0.1241',
/* authorisation */ '');

FILE_SCHEMA (('AUTOMOTIVE_DESIGN { 1 0 10303 214 3 1 1 }'));
ENDSEC;
DATA;
#1715 = FACE_BOUND('',#9159,.T.);
#3202 = B_SPLINE_CURVE_WITH_KNOTS('',3,(#94022,#94023,#94024,#94025,#94026, #94027,#94028,#94029,#94030,#94031,#94032,#94033,#94034,#94035,#94036,#94037, #94038,#94039,#94040,#94041,#94042,#94043,#94044,#94045,#94046,#94047,#94048, #94049,#94050,#94051,#94052,#94053,#94054,#94055,#94056,#94057,#94058,#94059, #94060,#94061,#94062,#94063,#94064,#94065,#94066,#94067,#94068,#94069,#94070, #94071,#94072,#94073),.UNSPECIFIED.,.F.,.F.,(4,3,3,3,3,3,3,3,3,3,3,3,3, 3,3,3,3,4),(0.157738195518809,0.185555349953429,0.212550032079413,0.21735377837603, 0.260709206435836,0.302697626774009,0.343694336557841,0.383755893235226, 0.423478740564782,0.462986076393938,0.476126155092612,0.51219981576691, 0.547444537778833,0.582069069216609,0.616088527805631,0.649905076636353, 0.68362724517337,0.708640107236297),.UNSPECIFIED.);
#3211 = B_SPLINE_CURVE_WITH_KNOTS('',3,(#94697,#94698,#94699,#94700,#94701, #94702,#94703,#94704,#94705,#94706,#94707,#94708,#94709,#94710,#94711,#94712, #94713,#94714,#94715,#94716,#94717,#94718,#94719,#94720,#94721,#94722,#94723, #94724,#94725,#94726,#94727,#94728,#94729,#94730,#94731,#94732,#94733,#94734, #94735,#94736,#94737,#94738,#94739,#94740,#94741,#94742,#94743,#94744,#94745), .UNSPECIFIED.,.F.,.F.,(4,3,3,3,3,3,3,3,3,3,3,3,3,3,3,3,4),(0.,0.0243448107282803, 0.0451434007775878,0.0815146787073948,0.117821254866272,0.154229184590669, 0.191131558306527,0.228489851614751,0.266848650926684,0.283292388873847, 0.321869769440895,0.360611156316142,0.399669899566444,0.439554697189632, 0.480081297226506,0.521969738809544,0.547686934888586),.UNSPECIFIED.);
#4324 = PLANE('',#54672);
#6250 = FACE_OUTER_BOUND('',#9158,.T.);
#9158 = EDGE_LOOP('',(#41184,#41185,#41186));
#9159 = EDGE_LOOP('',(#41187));
#18113 = CIRCLE('',#54673,2.8);
#18114 = CIRCLE('',#54674,1.50000000000001);
#22177 = VERTEX_POINT('',#93987);
#22178 = VERTEX_POINT('',#94021);
#22180 = VERTEX_POINT('',#94683);
#22181 = VERTEX_POINT('',#94748);
#28822 = EDGE_CURVE('',#22178,#22177,#3202,.T.);
#28833 = EDGE_CURVE('',#22177,#22180,#3211,.T.);
#28834 = EDGE_CURVE('',#22178,#22180,#18113,.T.);
#28835 = EDGE_CURVE('',#22181,#22181,#18114,.T.);
#41184 = ORIENTED_EDGE('',*,*,#28822,.T.);
#41185 = ORIENTED_EDGE('',*,*,#28833,.T.);
#41186 = ORIENTED_EDGE('',*,*,#28834,.F.);
#41187 = ORIENTED_EDGE('',*,*,#28835,.T.);
#50654 = ADVANCED_FACE('',(#6250,#1715),#4324,.T.);
#54672 = AXIS2_PLACEMENT_3D('',#94746,#63596,#63597);
#54673 = AXIS2_PLACEMENT_3D('',#94747,#63598,#63599);
#54674 = AXIS2_PLACEMENT_3D('',#94749,#63600,#63601);
#63596 = DIRECTION('center_axis',(1.83307806163851E-19,1.,-4.14345715322258E-32));
#63597 = DIRECTION('ref_axis',(-0.933885103918782,1.71188429608437E-19,-0.357573227015959));
#63598 = DIRECTION('center_axis',(-1.83307806163851E-19,-1.,4.14345715322258E-32));
#63599 = DIRECTION('ref_axis',(0.357573227015959,-6.55459637872628E-20,-0.933885103918782));
#63600 = DIRECTION('center_axis',(-1.83307806163851E-19,-1.,4.14345715322258E-32));
#63601 = DIRECTION('ref_axis',(-0.357573227015959,6.55459637872628E-20,0.933885103918782));
#93987 = CARTESIAN_POINT('',(-1.38315180170559,17.4999264361617,1.71228655720199));
#94021 = CARTESIAN_POINT('',(-0.79012094255313,17.4994743939511,-2.68675502535578));
#94022 = CARTESIAN_POINT('Ctrl Pts',(-0.790349091821683,17.5,-2.68722786799864));
#94023 = CARTESIAN_POINT('Ctrl Pts',(-0.875997790567849,17.5,-2.65353802893628));
#94024 = CARTESIAN_POINT('Ctrl Pts',(-0.959825953153242,17.5,-2.61563764463382));
#94025 = CARTESIAN_POINT('Ctrl Pts',(-1.04145802029014,17.5,-2.57348132169656));
#94026 = CARTESIAN_POINT('Ctrl Pts',(-1.12067646475134,17.5,-2.53257143855354));
#94027 = CARTESIAN_POINT('Ctrl Pts',(-1.19782724238573,17.5,-2.4876532404103));
#94028 = CARTESIAN_POINT('Ctrl Pts',(-1.27253104855064,17.5,-2.43865153147719));
#94029 = CARTESIAN_POINT('Ctrl Pts',(-1.28582470878094,17.5,-2.42993160002118));
#94030 = CARTESIAN_POINT('Ctrl Pts',(-1.2990407760425,17.5,-2.42108227551945));
#94031 = CARTESIAN_POINT('Ctrl Pts',(-1.31217697080664,17.5,-2.41210302965183));
#94032 = CARTESIAN_POINT('Ctrl Pts',(-1.43073555236145,17.5,-2.33106231180229));
#94033 = CARTESIAN_POINT('Ctrl Pts',(-1.54230394245775,17.5,-2.23976807268995));
#94034 = CARTESIAN_POINT('Ctrl Pts',(-1.64586405304388,17.5,-2.13985809450095));
#94035 = CARTESIAN_POINT('Ctrl Pts',(-1.74615888688937,17.5,-2.04309830344571));
#94036 = CARTESIAN_POINT('Ctrl Pts',(-1.83894234594583,17.5,-1.93825709993411));
#94037 = CARTESIAN_POINT('Ctrl Pts',(-1.9232586812221,17.5,-1.82685943489624));
#94038 = CARTESIAN_POINT('Ctrl Pts',(-2.00558357697949,17.5,-1.71809283431035));
#94039 = CARTESIAN_POINT('Ctrl Pts',(-2.07983643366102,17.5,-1.6030755138137));
#94040 = CARTESIAN_POINT('Ctrl Pts',(-2.14509975072923,17.5,-1.4832683322205));
#94041 = CARTESIAN_POINT('Ctrl Pts',(-2.20887438263186,17.5,-1.36619400549863));
#94042 = CARTESIAN_POINT('Ctrl Pts',(-2.26406470698271,17.5,-1.24454565578107));
#94043 = CARTESIAN_POINT('Ctrl Pts',(-2.30979025412204,17.5,-1.11973007607086));
#94044 = CARTESIAN_POINT('Ctrl Pts',(-2.35512920444547,17.5,-0.995969777460763));
#94045 = CARTESIAN_POINT('Ctrl Pts',(-2.39116254418292,17.5,-0.869095381718987));
#94046 = CARTESIAN_POINT('Ctrl Pts',(-2.41701062706844,17.5,-0.740524687694452));
#94047 = CARTESIAN_POINT('Ctrl Pts',(-2.44271847430875,17.5,-0.612651538409009));
#94048 = CARTESIAN_POINT('Ctrl Pts',(-2.45835102436469,17.5,-0.483100316191875));
#94049 = CARTESIAN_POINT('Ctrl Pts',(-2.46302508911599,17.5,-0.353314424032121));
#94050 = CARTESIAN_POINT('Ctrl Pts',(-2.46457967581201,17.5,-0.31014783734221));
#94051 = CARTESIAN_POINT('Ctrl Pts',(-2.46492188710798,17.5,-0.266955698683161));
#94052 = CARTESIAN_POINT('Ctrl Pts',(-2.46401887300169,17.5,-0.223792343690581));
#94053 = CARTESIAN_POINT('Ctrl Pts',(-2.46153981445103,17.5,-0.105295319641262));
#94054 = CARTESIAN_POINT('Ctrl Pts',(-2.44967334015744,17.5,0.0130427769246949));
#94055 = CARTESIAN_POINT('Ctrl Pts',(-2.42890460332589,17.5,0.130023612028697));
#94056 = CARTESIAN_POINT('Ctrl Pts',(-2.40861311245737,17.5,0.244316337992621));
#94057 = CARTESIAN_POINT('Ctrl Pts',(-2.37982345704886,17.5,0.35731352854359));
#94058 = CARTESIAN_POINT('Ctrl Pts',(-2.3430051649446,17.5,0.467851523950028));
#94059 = CARTESIAN_POINT('Ctrl Pts',(-2.30683475304524,17.5,0.576444416120502));
#94060 = CARTESIAN_POINT('Ctrl Pts',(-2.26291548417854,17.5,0.682663910035255));
#94061 = CARTESIAN_POINT('Ctrl Pts',(-2.2117137505535,17.5,0.78536112931685));
#94062 = CARTESIAN_POINT('Ctrl Pts',(-2.16140678077188,17.5,0.886263687517136));
#94063 = CARTESIAN_POINT('Ctrl Pts',(-2.10406940963923,17.5,0.983765925408773));
#94064 = CARTESIAN_POINT('Ctrl Pts',(-2.04016853320126,17.5,1.07673425105851));
#94065 = CARTESIAN_POINT('Ctrl Pts',(-1.97664879485104,17.5,1.16914806522365));
#94066 = CARTESIAN_POINT('Ctrl Pts',(-1.90664335896004,17.5,1.25708181317972));
#94067 = CARTESIAN_POINT('Ctrl Pts',(-1.83063899696123,17.5,1.33937931203136));
#94068 = CARTESIAN_POINT('Ctrl Pts',(-1.75484675932924,17.5,1.42144712268649));
#94069 = CARTESIAN_POINT('Ctrl Pts',(-1.67308878802001,17.5,1.49790994908272));
#94070 = CARTESIAN_POINT('Ctrl Pts',(-1.58587966343331,17.5,1.56758029397556));
#94071 = CARTESIAN_POINT('Ctrl Pts',(-1.52119373430865,17.5,1.61925712266967));
#94072 = CARTESIAN_POINT('Ctrl Pts',(-1.45350939244534,17.5,1.66719606407098));
#94073 = CARTESIAN_POINT('Ctrl Pts',(-1.38304917412358,17.5,1.71089888127735));
#94683 = CARTESIAN_POINT('',(2.79232376591423,17.5,0.207190700347759));
#94697 = CARTESIAN_POINT('Ctrl Pts',(-1.38236764630625,17.5,1.71293241658218));
#94698 = CARTESIAN_POINT('Ctrl Pts',(-1.32660343765878,17.5,1.77191473891531));
#94699 = CARTESIAN_POINT('Ctrl Pts',(-1.267761529817,17.5,1.8275581722678));
#94700 = CARTESIAN_POINT('Ctrl Pts',(-1.20608902261539,17.5,1.8795486931552));
#94701 = CARTESIAN_POINT('Ctrl Pts',(-1.15340012686196,17.5,1.92396594258286));
#94702 = CARTESIAN_POINT('Ctrl Pts',(-1.0986441676128,17.5,1.96571733148265));
#94703 = CARTESIAN_POINT('Ctrl Pts',(-1.04194668465535,17.5,2.0045974059719));
#94704 = CARTESIAN_POINT('Ctrl Pts',(-0.942797660337978,17.5,2.07258845689543));
#94705 = CARTESIAN_POINT('Ctrl Pts',(-0.837675209364484,17.5,2.13181659842402));
#94706 = CARTESIAN_POINT('Ctrl Pts',(-0.728206661227835,17.5,2.18225439436338));
#94707 = CARTESIAN_POINT('Ctrl Pts',(-0.618932849414149,17.5,2.23260246525306));
#94708 = CARTESIAN_POINT('Ctrl Pts',(-0.505328558519373,17.5,2.27419178615209));
#94709 = CARTESIAN_POINT('Ctrl Pts',(-0.388964058330418,17.5,2.30701396717822));
#94710 = CARTESIAN_POINT('Ctrl Pts',(-0.272274714594044,17.5,2.33992777472017));
#94711 = CARTESIAN_POINT('Ctrl Pts',(-0.15280980399186,17.5,2.36402573564088));
#94712 = CARTESIAN_POINT('Ctrl Pts',(-0.0321022080053151,17.5,2.37931348593852));
#94713 = CARTESIAN_POINT('Ctrl Pts',(0.090244677718687,17.5,2.39480885409126));
#94714 = CARTESIAN_POINT('Ctrl Pts',(0.21386818104765,17.5,2.40125337332469));
#94715 = CARTESIAN_POINT('Ctrl Pts',(0.33722508551021,17.5,2.39866290166312));
#94716 = CARTESIAN_POINT('Ctrl Pts',(0.462106033657093,17.5,2.39604042537244));
#94717 = CARTESIAN_POINT('Ctrl Pts',(0.586713832057936,17.5,2.38415861619207));
#94718 = CARTESIAN_POINT('Ctrl Pts',(0.709501063607434,17.5,2.36303974291096));
#94719 = CARTESIAN_POINT('Ctrl Pts',(0.83557670454251,17.5,2.34135527742426));
#94720 = CARTESIAN_POINT('Ctrl Pts',(0.959733038343987,17.5,2.30993265992013));
#94721 = CARTESIAN_POINT('Ctrl Pts',(1.08035023971652,17.5,2.26879759366434));
#94722 = CARTESIAN_POINT('Ctrl Pts',(1.13205669786608,17.5,2.25116371924485));
#94723 = CARTESIAN_POINT('Ctrl Pts',(1.1831134455598,17.5,2.23174499526304));
#94724 = CARTESIAN_POINT('Ctrl Pts',(1.23339576915816,17.5,2.21054332370371));
#94725 = CARTESIAN_POINT('Ctrl Pts',(1.35135923582748,17.5,2.16080372343581));
#94726 = CARTESIAN_POINT('Ctrl Pts',(1.4649858324547,17.5,2.10128434733386));
#94727 = CARTESIAN_POINT('Ctrl Pts',(1.57343952252272,17.5,2.03326641464211));
#94728 = CARTESIAN_POINT('Ctrl Pts',(1.68235428820182,17.5,1.96495931327513));
#94729 = CARTESIAN_POINT('Ctrl Pts',(1.78605226075935,17.5,1.88808141664921));
#94730 = CARTESIAN_POINT('Ctrl Pts',(1.88372432083827,17.5,1.80389328188794));
#94731 = CARTESIAN_POINT('Ctrl Pts',(1.98219647749171,17.5,1.71901550632066));
#94732 = CARTESIAN_POINT('Ctrl Pts',(2.07454380399462,17.5,1.62670735547986));
#94733 = CARTESIAN_POINT('Ctrl Pts',(2.15997229319989,17.5,1.52822074926292));
#94734 = CARTESIAN_POINT('Ctrl Pts',(2.24720751173654,17.5,1.42765124725964));
#94735 = CARTESIAN_POINT('Ctrl Pts',(2.32722834285928,17.5,1.32063932482388));
#94736 = CARTESIAN_POINT('Ctrl Pts',(2.39922282866265,17.5,1.20847453665841));
#94737 = CARTESIAN_POINT('Ctrl Pts',(2.47237580686197,17.5,1.09450485951104));
#94738 = CARTESIAN_POINT('Ctrl Pts',(2.53724234253864,17.5,0.975215169048355));
#94739 = CARTESIAN_POINT('Ctrl Pts',(2.59300109166858,17.5,0.851912694826829));
#94740 = CARTESIAN_POINT('Ctrl Pts',(2.65063353809999,17.5,0.724466807834755));
#94741 = CARTESIAN_POINT('Ctrl Pts',(2.69853611055795,17.5,0.592733983193848));
#94742 = CARTESIAN_POINT('Ctrl Pts',(2.73582963026574,17.5,0.458108516477284));
#94743 = CARTESIAN_POINT('Ctrl Pts',(2.75872579738386,17.5,0.37545589456202));
#94744 = CARTESIAN_POINT('Ctrl Pts',(2.77762363777843,17.5,0.291711982301037));
#94745 = CARTESIAN_POINT('Ctrl Pts',(2.79232376591425,17.5,0.207190700347761));
#94746 = CARTESIAN_POINT('Origin',(-1.05484101969708,17.5,2.75496105656041));
#94747 = CARTESIAN_POINT('Origin',(-9.7591584696555E-19,17.5,1.49053438831622E-30));
#94748 = CARTESIAN_POINT('',(0.536359840523942,17.5,-1.40082765587818));
#94749 = CARTESIAN_POINT('Origin',(-9.7591584696555E-19,17.5,1.49053438831622E-30));
ENDSEC;
END-ISO-10303-21;
