ISO-10303-21;
HEADER;
/* Generated by software containing ST-Developer
 * from STEP Tools, Inc. (www.steptools.com) 
 */

FILE_DESCRIPTION(
/* description */ (''),
/* implementation_level */ '2;1');

FILE_NAME(
/* name */ 'C:/Users/Robert/Desktop/Orbiter v1.1 Gear 7.5.step',
/* time_stamp */ '2020-10-11T15:34:29+03:00',
/* author */ (''),
/* organization */ (''),
/* preprocessor_version */ 'ST-DEVELOPER v18.1',
/* originating_system */ 'Autodesk Translation Framework v9.3.0.1241',
/* authorisation */ '');

FILE_SCHEMA (('AUTOMOTIVE_DESIGN { 1 0 10303 214 3 1 1 }'));
ENDSEC;
DATA;
#3157 = B_SPLINE_CURVE_WITH_KNOTS('',3,(#88179,#88180,#88181,#88182,#88183, #88184,#88185,#88186,#88187,#88188,#88189,#88190,#88191,#88192,#88193,#88194, #88195,#88196,#88197,#88198,#88199,#88200,#88201,#88202,#88203,#88204,#88205, #88206,#88207,#88208,#88209,#88210,#88211,#88212,#88213,#88214,#88215,#88216, #88217,#88218,#88219,#88220,#88221,#88222,#88223,#88224,#88225,#88226,#88227, #88228,#88229,#88230,#88231,#88232,#88233,#88234,#88235,#88236,#88237,#88238, #88239,#88240,#88241,#88242,#88243,#88244,#88245,#88246,#88247,#88248,#88249, #88250,#88251,#88252,#88253,#88254,#88255,#88256,#88257,#88258,#88259,#88260, #88261,#88262,#88263,#88264,#88265,#88266,#88267,#88268,#88269,#88270,#88271, #88272,#88273,#88274,#88275,#88276,#88277,#88278,#88279,#88280,#88281,#88282, #88283,#88284,#88285,#88286,#88287,#88288,#88289,#88290,#88291,#88292,#88293, #88294,#88295,#88296,#88297,#88298,#88299,#88300,#88301,#88302,#88303,#88304, #88305,#88306,#88307,#88308,#88309,#88310,#88311,#88312,#88313,#88314,#88315, #88316,#88317,#88318,#88319,#88320,#88321,#88322,#88323,#88324,#88325,#88326, #88327,#88328,#88329,#88330,#88331,#88332,#88333,#88334,#88335,#88336,#88337, #88338,#88339,#88340,#88341,#88342,#88343,#88344,#88345,#88346,#88347,#88348, #88349,#88350,#88351,#88352,#88353,#88354,#88355,#88356,#88357,#88358,#88359, #88360,#88361,#88362,#88363,#88364,#88365,#88366,#88367,#88368,#88369,#88370, #88371,#88372,#88373,#88374,#88375,#88376,#88377,#88378,#88379,#88380,#88381, #88382,#88383,#88384,#88385,#88386,#88387,#88388,#88389),.UNSPECIFIED., .F.,.F.,(4,3,3,3,3,3,3,3,3,3,3,3,3,3,3,3,3,3,3,3,3,3,3,3,3,3,3,3,3,3,3, 3,3,3,3,3,3,3,3,3,3,3,3,3,3,3,3,3,3,3,3,3,3,3,3,3,3,3,3,3,3,3,3,3,3,3,3, 3,3,3,4),(59.6906970294162,59.7820879963158,59.8733848825244,59.964616911146, 60.0558150490122,60.1470028628798,60.2382039052566,60.3295009802558,60.4208466997589, 60.5123459629515,60.5923311700716,60.6838503329151,60.7752477410453,60.8665496283232, 60.9577847101068,61.048984602525,61.1401728730631,61.2313730739496,61.3226685856452, 61.4140115741735,61.5055096546331,61.5905360973927,61.6820522873764,61.7734467153321, 61.8647456188917,61.9559777235851,62.0471746437581,62.1383599502248,62.2295571985557, 62.3208497941251,62.4121898817637,62.503685118511,62.5887410247137,62.6802616834111, 62.7716605702965,62.8629639176601,62.9542004257625,63.0454017235916,63.1365913771833, 63.2277929373048,63.3190897625962,63.4104340418971,63.5019333607443,63.5869459520348, 63.6784684126877,63.769869149681,63.8611743923308,63.9524128557252,64.0436161447558, 64.1348078229581,64.2260114386209,64.3173103547758,64.4086567475597,64.5001581948702, 64.5851508793558,64.6766527207695,64.7680327742502,64.8593172954115,64.9505350632688, 65.0417176781692,65.1328887268462,65.2240717808255,65.3153503697643,65.4066765308421, 65.4981581272175,65.5833558066769,65.6749086712916,65.7663141698674,65.8576347201676, 65.9488842974681,65.9737707424681),.UNSPECIFIED.);
#3158 = B_SPLINE_CURVE_WITH_KNOTS('',3,(#88390,#88391,#88392,#88393,#88394, #88395,#88396,#88397,#88398,#88399,#88400,#88401,#88402,#88403,#88404,#88405, #88406,#88407,#88408,#88409,#88410,#88411,#88412,#88413,#88414,#88415,#88416, #88417,#88418,#88419,#88420,#88421,#88422,#88423,#88424,#88425,#88426,#88427, #88428,#88429,#88430,#88431,#88432,#88433,#88434,#88435,#88436,#88437,#88438, #88439,#88440,#88441,#88442,#88443,#88444,#88445,#88446,#88447,#88448,#88449, #88450,#88451,#88452,#88453,#88454,#88455,#88456,#88457,#88458,#88459,#88460, #88461,#88462,#88463,#88464,#88465,#88466,#88467,#88468,#88469,#88470,#88471, #88472,#88473,#88474,#88475,#88476,#88477,#88478,#88479,#88480,#88481,#88482, #88483,#88484,#88485,#88486,#88487,#88488,#88489,#88490,#88491,#88492,#88493, #88494,#88495,#88496,#88497,#88498,#88499,#88500,#88501,#88502,#88503,#88504, #88505,#88506,#88507,#88508,#88509,#88510,#88511,#88512,#88513,#88514,#88515, #88516,#88517,#88518,#88519,#88520,#88521,#88522,#88523,#88524,#88525,#88526, #88527,#88528,#88529,#88530,#88531,#88532,#88533,#88534,#88535,#88536,#88537, #88538,#88539,#88540,#88541,#88542,#88543,#88544,#88545,#88546,#88547,#88548, #88549,#88550,#88551,#88552,#88553,#88554,#88555,#88556,#88557,#88558,#88559, #88560,#88561,#88562,#88563,#88564,#88565,#88566,#88567,#88568,#88569,#88570, #88571,#88572,#88573,#88574,#88575,#88576,#88577,#88578,#88579,#88580,#88581, #88582,#88583,#88584,#88585,#88586,#88587,#88588,#88589,#88590,#88591,#88592, #88593,#88594,#88595,#88596,#88597,#88598,#88599,#88600),.UNSPECIFIED., .F.,.F.,(4,3,3,3,3,3,3,3,3,3,3,3,3,3,3,3,3,3,3,3,3,3,3,3,3,3,3,3,3,3,3, 3,3,3,3,3,3,3,3,3,3,3,3,3,3,3,3,3,3,3,3,3,3,3,3,3,3,3,3,3,3,3,3,3,3,3,3, 3,3,3,4),(-72.2560813937768,-72.1647021145325,-72.0733754973596,-71.9820745048787, -71.8907757130796,-71.7994557059753,-71.7080369623533,-71.6165625788757, -71.5249474501568,-71.480664848407,-71.3889909023829,-71.2974358058184, -71.2059735491537,-71.1145746939553,-71.0232090033007,-70.9318531010813, -70.8404836250204,-70.7490173019606,-70.6575023944365,-70.5658323653246, -70.4824599210859,-70.3910541384355,-70.2997715644788,-70.2085858119557, -70.1174683706026,-70.0263870056051,-69.9353180176275,-69.8442377231694, -69.7530623617277,-69.6618398509267,-69.5704615039295,-69.4842549937649, -69.3927147152072,-69.3012961293871,-69.209973030501,-69.1187167743522, -69.0274957365344,-68.9362863743453,-68.8450651603799,-68.7537488927281, -68.6623852556508,-68.5708669345771,-68.4860500664438,-68.3945137774737, -68.3030988937431,-68.2117792057897,-68.1205259019857,-68.0293075358369, -67.9381005605242,-67.8468814442988,-67.7555668015076,-67.664204533571, -67.5726871285025,-67.4878451391228,-67.3963423956129,-67.3049616259146, -67.213676573558,-67.1224585562394,-67.0312758634332,-66.9401049082023, -66.848922118951,-66.7576440627822,-66.6663185816612,-66.5748379077915, -66.4896402118017,-66.3981197361241,-66.3067162563731,-66.2154198124716, -66.1241858812477,-66.0329844218733,-65.9734997578748),.UNSPECIFIED.);
#3225 = B_SPLINE_CURVE_WITH_KNOTS('',3,(#97902,#97903,#97904,#97905,#97906, #97907,#97908,#97909,#97910,#97911,#97912,#97913,#97914,#97915,#97916,#97917, #97918,#97919,#97920,#97921,#97922,#97923,#97924,#97925,#97926,#97927,#97928, #97929,#97930,#97931,#97932,#97933,#97934,#97935,#97936,#97937), .UNSPECIFIED.,.F.,.F.,(4,2,2,2,2,2,2,2,2,2,2,2,2,2,2,2,2,4),(-1.41826839324681, -1.40482153675696,-1.34515976227378,-1.28699062465086,-1.22927287309351, -1.16951868844828,-1.11202018724372,-1.05243602696649,-0.993461412428271, -0.936507289683945,-0.876859278601338,-0.818532079284112,-0.761095127097733, -0.701163911012006,-0.643506626124152,-0.584472913219974,-0.52530782522434, -0.472935221504696),.UNSPECIFIED.);
#3226 = B_SPLINE_CURVE_WITH_KNOTS('',3,(#97938,#97939,#97940,#97941,#97942, #97943,#97944,#97945,#97946,#97947,#97948,#97949,#97950,#97951,#97952,#97953, #97954,#97955,#97956,#97957,#97958,#97959,#97960,#97961,#97962,#97963,#97964, #97965,#97966,#97967,#97968,#97969,#97970,#97971,#97972,#97973), .UNSPECIFIED.,.F.,.F.,(4,2,2,2,2,2,2,2,2,2,2,2,2,2,2,2,2,4),(-14.0682546416761, -14.0571544660933,-13.9995094275666,-13.9395966574038,-13.8819763204835, -13.8236606523549,-13.7639424952376,-13.7069245007704,-13.6479596977866, -13.5880326675304,-13.5305303753729,-13.4707771853899,-13.4128404092286, -13.3546653790079,-13.2949209937896,-13.2378385489809,-13.1790120528847, -13.1217523389954),.UNSPECIFIED.);
#6228 = FACE_OUTER_BOUND('',#9136,.T.);
#6294 = FACE_OUTER_BOUND('',#9209,.T.);
#9136 = EDGE_LOOP('',(#41071,#41072,#41073,#41074));
#9209 = EDGE_LOOP('',(#41377,#41378,#41379,#41380));
#12323 = LINE('',#87998,#15450);
#12324 = LINE('',#88178,#15451);
#12365 = LINE('',#97858,#15492);
#12366 = LINE('',#97901,#15493);
#15450 = VECTOR('',#63536,3.45);
#15451 = VECTOR('',#63541,3.45);
#15492 = VECTOR('',#63766,1.5);
#15493 = VECTOR('',#63771,1.5);
#22127 = VERTEX_POINT('',#87996);
#22128 = VERTEX_POINT('',#87997);
#22131 = VERTEX_POINT('',#88176);
#22132 = VERTEX_POINT('',#88177);
#22241 = VERTEX_POINT('',#97856);
#22242 = VERTEX_POINT('',#97857);
#22245 = VERTEX_POINT('',#97899);
#22246 = VERTEX_POINT('',#97900);
#28757 = EDGE_CURVE('',#22127,#22128,#12323,.T.);
#28761 = EDGE_CURVE('',#22131,#22132,#12324,.T.);
#28762 = EDGE_CURVE('',#22131,#22127,#3157,.T.);
#28763 = EDGE_CURVE('',#22128,#22132,#3158,.T.);
#28927 = EDGE_CURVE('',#22241,#22242,#12365,.T.);
#28931 = EDGE_CURVE('',#22245,#22246,#12366,.T.);
#28932 = EDGE_CURVE('',#22245,#22241,#3225,.T.);
#28933 = EDGE_CURVE('',#22246,#22242,#3226,.F.);
#41071 = ORIENTED_EDGE('',*,*,#28761,.F.);
#41072 = ORIENTED_EDGE('',*,*,#28762,.T.);
#41073 = ORIENTED_EDGE('',*,*,#28757,.T.);
#41074 = ORIENTED_EDGE('',*,*,#28763,.T.);
#41377 = ORIENTED_EDGE('',*,*,#28931,.F.);
#41378 = ORIENTED_EDGE('',*,*,#28932,.T.);
#41379 = ORIENTED_EDGE('',*,*,#28927,.T.);
#41380 = ORIENTED_EDGE('',*,*,#28933,.F.);
#48428 = CYLINDRICAL_SURFACE('',#54651,3.45);
#48469 = CYLINDRICAL_SURFACE('',#54745,1.5);
#50632 = ADVANCED_FACE('',(#6228),#48428,.T.);
#50698 = ADVANCED_FACE('',(#6294),#48469,.T.);
#54651 = AXIS2_PLACEMENT_3D('',#88175,#63539,#63540);
#54745 = AXIS2_PLACEMENT_3D('',#97898,#63769,#63770);
#63536 = DIRECTION('',(1.83307806163851E-19,1.,-4.14345715322258E-32));
#63539 = DIRECTION('center_axis',(-1.83307806163851E-19,-1.,4.14345715322258E-32));
#63540 = DIRECTION('ref_axis',(-0.357573227015959,6.55459637872628E-20,0.933885103918782));
#63541 = DIRECTION('',(1.83307806163851E-19,1.,-4.14345715322258E-32));
#63766 = DIRECTION('',(0.,5.10030723611171E-17,1.));
#63769 = DIRECTION('center_axis',(0.,-5.10030723611171E-17,-1.));
#63770 = DIRECTION('ref_axis',(0.,1.,-5.10030723611171E-17));
#63771 = DIRECTION('',(0.,5.10030723611171E-17,1.));
#87996 = CARTESIAN_POINT('',(1.23362763320508,29.4397631597782,-3.22190360851979));
#87997 = CARTESIAN_POINT('',(1.23362763320506,29.6602010905669,-3.2219036085198));
#87998 = CARTESIAN_POINT('',(1.23362763320506,24.85,-3.2219036085198));
#88175 = CARTESIAN_POINT('Origin',(3.71396528338755E-19,24.85,1.18599028755436E-30));
#88176 = CARTESIAN_POINT('',(1.23362763320501,28.4397809205353,-3.22190360851982));
#88177 = CARTESIAN_POINT('',(1.23362763320506,28.6602971678347,-3.2219036085198));
#88178 = CARTESIAN_POINT('',(1.23362763320506,24.85,-3.2219036085198));
#88179 = CARTESIAN_POINT('Ctrl Pts',(1.23362763320501,28.4397809205353,-3.22190360851982));
#88180 = CARTESIAN_POINT('Ctrl Pts',(1.13576653805309,28.444629361914,-3.25937342942814));
#88181 = CARTESIAN_POINT('Ctrl Pts',(1.03606142330028,28.4494778032926,-3.29243242519616));
#88182 = CARTESIAN_POINT('Ctrl Pts',(0.934946811743441,28.4543262446713,-3.32089964606141));
#88183 = CARTESIAN_POINT('Ctrl Pts',(0.833936290698464,28.4591696949143,-3.34933756188809));
#88184 = CARTESIAN_POINT('Ctrl Pts',(0.73151956676287,28.4640131451573,-3.37319298714673));
#88185 = CARTESIAN_POINT('Ctrl Pts',(0.628149191535703,28.4688565954003,-3.39233379742811));
#88186 = CARTESIAN_POINT('Ctrl Pts',(0.524852250939042,28.4736966048415,-3.41146101001937));
#88187 = CARTESIAN_POINT('Ctrl Pts',(0.420603424706603,28.4785366142826,-3.42588019024156));
#88188 = CARTESIAN_POINT('Ctrl Pts',(0.31586761799941,28.4833766237237,-3.43550980902389));
#88189 = CARTESIAN_POINT('Ctrl Pts',(0.211170718413534,28.4882148352045,-3.44513585060795));
#88190 = CARTESIAN_POINT('Ctrl Pts',(0.105987622476818,28.4930530466852,-3.44997582767546));
#88191 = CARTESIAN_POINT('Ctrl Pts',(0.000789775144485639,28.4978912581659, -3.4499999096022));
#88192 = CARTESIAN_POINT('Ctrl Pts',(-0.104396163365387,28.5027289219415, -3.45002398880277));
#88193 = CARTESIAN_POINT('Ctrl Pts',(-0.209596423082441,28.5075665857171, -3.44523325672134));
#88194 = CARTESIAN_POINT('Ctrl Pts',(-0.314339036715832,28.5124042494927, -3.43565000691231));
#88195 = CARTESIAN_POINT('Ctrl Pts',(-0.419096845237282,28.5172426150625, -3.42606536687248));
#88196 = CARTESIAN_POINT('Ctrl Pts',(-0.523396450617775,28.5220809806323, -3.41168686663177));
#88197 = CARTESIAN_POINT('Ctrl Pts',(-0.626771389070907,28.5269193462021, -3.39258863198032));
#88198 = CARTESIAN_POINT('Ctrl Pts',(-0.730255178982146,28.5317628064607, -3.37347028732233));
#88199 = CARTESIAN_POINT('Ctrl Pts',(-0.832811936711451,28.5366062667194, -3.34962236011496));
#88200 = CARTESIAN_POINT('Ctrl Pts',(-0.933985767742058,28.541449726978,-3.32117006274224));
#88201 = CARTESIAN_POINT('Ctrl Pts',(-1.03521350576598,28.5462957679078,-3.29270260554223));
#88202 = CARTESIAN_POINT('Ctrl Pts',(-1.13505644405258,28.5511418088375,-3.25962602581882));
#88203 = CARTESIAN_POINT('Ctrl Pts',(-1.23307614046782,28.5559878497672,-3.22211471425351));
#88204 = CARTESIAN_POINT('Ctrl Pts',(-1.33126059890919,28.5608420364427,-3.18454034964966));
#88205 = CARTESIAN_POINT('Ctrl Pts',(-1.42761530070462,28.5656962231181,-3.14251653073315));
#88206 = CARTESIAN_POINT('Ctrl Pts',(-1.52172369264605,28.5705504097936,-3.09626500856107));
#88207 = CARTESIAN_POINT('Ctrl Pts',(-1.60398970177597,28.5747937568227,-3.05583367117673));
#88208 = CARTESIAN_POINT('Ctrl Pts',(-1.68453939605948,28.5790371038519,-3.01217250254724));
#88209 = CARTESIAN_POINT('Ctrl Pts',(-1.76311286134439,28.583280450881,-2.96545663231854));
#88210 = CARTESIAN_POINT('Ctrl Pts',(-1.85301670761169,28.5881356932657,-2.91200428170558));
#88211 = CARTESIAN_POINT('Ctrl Pts',(-1.94064247717806,28.5929909356504,-2.85436770879956));
#88212 = CARTESIAN_POINT('Ctrl Pts',(-2.02557509753894,28.5978461780352,-2.79276664335388));
#88213 = CARTESIAN_POINT('Ctrl Pts',(-2.1103947257513,28.6026949611317,-2.73124753036307));
#88214 = CARTESIAN_POINT('Ctrl Pts',(-2.19252798505116,28.6075437442283,-2.66577465845555));
#88215 = CARTESIAN_POINT('Ctrl Pts',(-2.27158577133547,28.6123925273249,-2.59661280969386));
#88216 = CARTESIAN_POINT('Ctrl Pts',(-2.35056093309816,28.6172362428828,-2.52752324305562));
#88217 = CARTESIAN_POINT('Ctrl Pts',(-2.4264666937056,28.6220799584408,-2.45475264536053));
#88218 = CARTESIAN_POINT('Ctrl Pts',(-2.49894495231468,28.6269236739988,-2.37860760221206));
#88219 = CARTESIAN_POINT('Ctrl Pts',(-2.57137017865861,28.6317638454152,-2.3025182743111));
#88220 = CARTESIAN_POINT('Ctrl Pts',(-2.64037259678571,28.6366040168316,-2.22305971915628));
#88221 = CARTESIAN_POINT('Ctrl Pts',(-2.70562970159102,28.641444188248,-2.14057653866161));
#88222 = CARTESIAN_POINT('Ctrl Pts',(-2.77086163673506,28.6462824928106,-2.05812517192452));
#88223 = CARTESIAN_POINT('Ctrl Pts',(-2.83235086487436,28.6511207973732,-1.97265183263853));
#88224 = CARTESIAN_POINT('Ctrl Pts',(-2.88981457402768,28.6559591019358,-1.88453488366155));
#88225 = CARTESIAN_POINT('Ctrl Pts',(-2.94727096040547,28.6607967899385,-1.79642916369583));
#88226 = CARTESIAN_POINT('Ctrl Pts',(-3.00070261452101,28.6656344779412,-1.7056808613505));
#88227 = CARTESIAN_POINT('Ctrl Pts',(-3.04987006722608,28.670472165944,-1.61269729739911));
#88228 = CARTESIAN_POINT('Ctrl Pts',(-3.0990439526098,28.6753104868713,-1.5197015682174));
#88229 = CARTESIAN_POINT('Ctrl Pts',(-3.14395232859615,28.6801488077987,-1.42447037381499));
#88230 = CARTESIAN_POINT('Ctrl Pts',(-3.18440212258464,28.684987128726,-1.32743478999099));
#88231 = CARTESIAN_POINT('Ctrl Pts',(-3.22489418953479,28.6898305060488,-1.23029779696043));
#88232 = CARTESIAN_POINT('Ctrl Pts',(-3.26091820297127,28.6946738833717,-1.13135304284114));
#88233 = CARTESIAN_POINT('Ctrl Pts',(-3.29232963322181,28.6995172606945,-1.0310507195136));
#88234 = CARTESIAN_POINT('Ctrl Pts',(-3.32375739850558,28.7043631567415,-0.930696235498991));
#88235 = CARTESIAN_POINT('Ctrl Pts',(-3.35056769351671,28.7092090527885,-0.828983188918256));
#88236 = CARTESIAN_POINT('Ctrl Pts',(-3.3726667048003,28.7140549488355,-0.726374076032079));
#88237 = CARTESIAN_POINT('Ctrl Pts',(-3.39480323815752,28.7189090727651,-0.623590742379256));
#88238 = CARTESIAN_POINT('Ctrl Pts',(-3.41221243334899,28.7237631966946,-0.519908724008201));
#88239 = CARTESIAN_POINT('Ctrl Pts',(-3.42485209810394,28.7286173206241,-0.415798155495034));
#88240 = CARTESIAN_POINT('Ctrl Pts',(-3.43659776234507,28.7331281135103,-0.319051302994001));
#88241 = CARTESIAN_POINT('Ctrl Pts',(-3.44422526510893,28.7376389063966,-0.221934700226208));
#88242 = CARTESIAN_POINT('Ctrl Pts',(-3.44774111001835,28.7421496992828,-0.124824830420085));
#88243 = CARTESIAN_POINT('Ctrl Pts',(-3.45152530609009,28.7470047839524,-0.0203029310434116));
#88244 = CARTESIAN_POINT('Ctrl Pts',(-3.45055868524758,28.751859868622,0.0845713625698376));
#88245 = CARTESIAN_POINT('Ctrl Pts',(-3.44480102351422,28.7567149532917,0.189330157120832));
#88246 = CARTESIAN_POINT('Ctrl Pts',(-3.43905102233327,28.7615635782851,0.293949570396382));
#88247 = CARTESIAN_POINT('Ctrl Pts',(-3.42852267588596,28.7664122032785,0.398453367619653));
#88248 = CARTESIAN_POINT('Ctrl Pts',(-3.41322769650304,28.7712608282719,0.502371069852283));
#88249 = CARTESIAN_POINT('Ctrl Pts',(-3.39794870325518,28.7761043855387,0.606180158507855));
#88250 = CARTESIAN_POINT('Ctrl Pts',(-3.37791304541502,28.7809479428055,0.709403950271898));
#88251 = CARTESIAN_POINT('Ctrl Pts',(-3.35318436921674,28.7857915000722,0.811575372987937));
#88252 = CARTESIAN_POINT('Ctrl Pts',(-3.32847378576074,28.7906315135491,0.913672041956403));
#88253 = CARTESIAN_POINT('Ctrl Pts',(-3.29907711213949,28.795471527026,1.0147174593907));
#88254 = CARTESIAN_POINT('Ctrl Pts',(-3.26510923374907,28.8003115405029,1.11425387218828));
#88255 = CARTESIAN_POINT('Ctrl Pts',(-3.23115445539087,28.805149687383,1.21375189783079));
#88256 = CARTESIAN_POINT('Ctrl Pts',(-3.19263211350756,28.8099878342631,1.31174167186051));
#88257 = CARTESIAN_POINT('Ctrl Pts',(-3.14970697606666,28.8148259811432,1.40778051020642));
#88258 = CARTESIAN_POINT('Ctrl Pts',(-3.10678730503777,28.819663511897,1.50380711823948));
#88259 = CARTESIAN_POINT('Ctrl Pts',(-3.05946612736007,28.8245010426509,1.5978828948132));
#88260 = CARTESIAN_POINT('Ctrl Pts',(-3.00795603402799,28.8293385734047,1.68958589522835));
#88261 = CARTESIAN_POINT('Ctrl Pts',(-2.95643919480055,28.8341767376941,1.7813009053062));
#88262 = CARTESIAN_POINT('Ctrl Pts',(-2.90073255907697,28.8390149019835,1.87064214958832));
#88263 = CARTESIAN_POINT('Ctrl Pts',(-2.84109382223689,28.843853066273,1.95721380877189));
#88264 = CARTESIAN_POINT('Ctrl Pts',(-2.78139273276035,28.8486962888905,2.04387597911445));
#88265 = CARTESIAN_POINT('Ctrl Pts',(-2.71775157353155,28.853539511508,2.12776242837933));
#88266 = CARTESIAN_POINT('Ctrl Pts',(-2.65047040818474,28.8583827341255,2.20850778023013));
#88267 = CARTESIAN_POINT('Ctrl Pts',(-2.58315424195162,28.8632284762756,2.28929513728202));
#88268 = CARTESIAN_POINT('Ctrl Pts',(-2.51219458568418,28.8680742184256,2.36693782660846));
#88269 = CARTESIAN_POINT('Ctrl Pts',(-2.43792932303025,28.8729199605757,2.44110643272866));
#88270 = CARTESIAN_POINT('Ctrl Pts',(-2.36353791434772,28.8777739336416,2.51540102069791));
#88271 = CARTESIAN_POINT('Ctrl Pts',(-2.28582999611277,28.8826279067075,2.58620944650298));
#88272 = CARTESIAN_POINT('Ctrl Pts',(-2.20517784055118,28.8874818797734,2.65324154413842));
#88273 = CARTESIAN_POINT('Ctrl Pts',(-2.1302018918312,28.8919942357438,2.71555599909517));
#88274 = CARTESIAN_POINT('Ctrl Pts',(-2.05268210521879,28.8965065917142,2.77460724115421));
#88275 = CARTESIAN_POINT('Ctrl Pts',(-1.97293879087746,28.9010189476847,2.8301965527947));
#88276 = CARTESIAN_POINT('Ctrl Pts',(-1.88713451247915,28.9058742694269,2.89001098126897));
#88277 = CARTESIAN_POINT('Ctrl Pts',(-1.79845981314127,28.9107295911692,2.94602288292765));
#88278 = CARTESIAN_POINT('Ctrl Pts',(-1.70728620402701,28.9155849129114,2.99794493237268));
#88279 = CARTESIAN_POINT('Ctrl Pts',(-1.61623390496171,28.9204337744584,3.0497978975024));
#88280 = CARTESIAN_POINT('Ctrl Pts',(-1.52268967365872,28.9252826360053,3.09757161916003));
#88281 = CARTESIAN_POINT('Ctrl Pts',(-1.42705533234079,28.9301314975523,3.14102102483217));
#88282 = CARTESIAN_POINT('Ctrl Pts',(-1.33152095787752,28.9349752905702,3.1844250127144));
#88283 = CARTESIAN_POINT('Ctrl Pts',(-1.23390120422856,28.9398190835881,3.22351349729652));
#88284 = CARTESIAN_POINT('Ctrl Pts',(-1.13462316710469,28.9446628766061,3.25808690317943));
#88285 = CARTESIAN_POINT('Ctrl Pts',(-1.03541780717,28.949503123691,3.29263499935606));
#88286 = CARTESIAN_POINT('Ctrl Pts',(-0.934556979675137,28.954343370776,3.32267444975815));
#88287 = CARTESIAN_POINT('Ctrl Pts',(-0.832487708294514,28.959183617861,3.34805379519782));
#88288 = CARTESIAN_POINT('Ctrl Pts',(-0.730457827800471,28.964021996983,3.37342334616259));
#88289 = CARTESIAN_POINT('Ctrl Pts',(-0.627220843989943,28.9688603761049, 3.39413626341334));
#88290 = CARTESIAN_POINT('Ctrl Pts',(-0.523238141439414,28.9736987552269, 3.41009117874332));
#88291 = CARTESIAN_POINT('Ctrl Pts',(-0.419268715007807,28.9785365166029, 3.42604405700995));
#88292 = CARTESIAN_POINT('Ctrl Pts',(-0.314554181024695,28.9833742779789, 3.43724007638685));
#88293 = CARTESIAN_POINT('Ctrl Pts',(-0.20956440374809,28.9882120393549,3.44362930070612));
#88294 = CARTESIAN_POINT('Ctrl Pts',(-0.104560918075124,28.9930504323919, 3.45001935925917));
#88295 = CARTESIAN_POINT('Ctrl Pts',(0.000717456169291517,28.9978888254289, 3.45160134987686));
#88296 = CARTESIAN_POINT('Ctrl Pts',(0.105798374383441,29.0027272184659,3.44837740161628));
#88297 = CARTESIAN_POINT('Ctrl Pts',(0.210989055539274,29.0075706654771,3.44515008576003));
#88298 = CARTESIAN_POINT('Ctrl Pts',(0.315981441130796,29.0124141124884,3.43710681709125));
#88299 = CARTESIAN_POINT('Ctrl Pts',(0.420305817609294,29.0172575594996,3.42430182952435));
#88300 = CARTESIAN_POINT('Ctrl Pts',(0.524684419521518,29.0221035240242,3.41149018621669));
#88301 = CARTESIAN_POINT('Ctrl Pts',(0.62839389961022,29.0269494885489,3.39391196508347));
#88302 = CARTESIAN_POINT('Ctrl Pts',(0.730974276147305,29.0317954530735,3.37167267207404));
#88303 = CARTESIAN_POINT('Ctrl Pts',(0.833728763369494,29.0366496427015,3.3493956320932));
#88304 = CARTESIAN_POINT('Ctrl Pts',(0.935349904544769,29.0415038323296,3.3224418220976));
#88305 = CARTESIAN_POINT('Ctrl Pts',(1.03539207343676,29.0463580219576,3.29096691783195));
#88306 = CARTESIAN_POINT('Ctrl Pts',(1.12834188030932,29.0508680800006,3.26172338677673));
#88307 = CARTESIAN_POINT('Ctrl Pts',(1.21992858597729,29.0553781380435,3.22857769295247));
#88308 = CARTESIAN_POINT('Ctrl Pts',(1.30981214579412,29.0598881960865,3.19169111016875));
#88309 = CARTESIAN_POINT('Ctrl Pts',(1.40657857111781,29.0647436134255,3.15197992421149));
#88310 = CARTESIAN_POINT('Ctrl Pts',(1.50170402219262,29.0695990307644,3.10779569755367));
#88311 = CARTESIAN_POINT('Ctrl Pts',(1.59474570244109,29.0744544481034,3.05929504045387));
#88312 = CARTESIAN_POINT('Ctrl Pts',(1.68766363848794,29.0793034078016,3.01085888858523));
#88313 = CARTESIAN_POINT('Ctrl Pts',(1.77850293807883,29.0841523674998,2.95811791454622));
#88314 = CARTESIAN_POINT('Ctrl Pts',(1.86683989847781,29.0890013271981,2.90127709697839));
#88315 = CARTESIAN_POINT('Ctrl Pts',(1.95508456552873,29.0938452207641,2.8444956659837));
#88316 = CARTESIAN_POINT('Ctrl Pts',(2.04083173510179,29.09868911433,2.7836231386316));
#88317 = CARTESIAN_POINT('Ctrl Pts',(2.12368225406107,29.103533007896,2.71891038539083));
#88318 = CARTESIAN_POINT('Ctrl Pts',(2.20647217742034,29.1083733587125,2.65424496206615));
#88319 = CARTESIAN_POINT('Ctrl Pts',(2.28636932778416,29.1132137095289,2.58574516008497));
#88320 = CARTESIAN_POINT('Ctrl Pts',(2.36300419858325,29.1180540603453,2.51370466791108));
#88321 = CARTESIAN_POINT('Ctrl Pts',(2.43960952501333,29.1228925451038,2.44169194887572));
#88322 = CARTESIAN_POINT('Ctrl Pts',(2.51295476070327,29.1277310298623,2.36614154439425));
#88323 = CARTESIAN_POINT('Ctrl Pts',(2.58270472158932,29.1325695146208,2.28738635151131));
#88324 = CARTESIAN_POINT('Ctrl Pts',(2.65244580280854,29.1374073834057,2.20864118472538));
#88325 = CARTESIAN_POINT('Ctrl Pts',(2.71859223622669,29.1422452521906,2.12669236020283));
#88326 = CARTESIAN_POINT('Ctrl Pts',(2.78084747353564,29.1470831209755,2.0419077669989));
#88327 = CARTESIAN_POINT('Ctrl Pts',(2.84311086037595,29.1519216230624,1.95711207505483));
#88328 = CARTESIAN_POINT('Ctrl Pts',(2.90148178641822,29.1567601251493,1.8694802209877));
#88329 = CARTESIAN_POINT('Ctrl Pts',(2.95570612142202,29.1615986272361,1.77941038655741));
#88330 = CARTESIAN_POINT('Ctrl Pts',(3.0099871165239,29.1664421851711,1.68924643634585));
#88331 = CARTESIAN_POINT('Ctrl Pts',(3.06011264556308,29.1712857431061,1.59663978388784));
#88332 = CARTESIAN_POINT('Ctrl Pts',(3.10587379871266,29.1761293010411,1.50201462924639));
#88333 = CARTESIAN_POINT('Ctrl Pts',(3.1516587482596,29.1809753776895,1.40734026828857));
#88334 = CARTESIAN_POINT('Ctrl Pts',(3.19307463284807,29.1858214543379,1.31064570678017));
#88335 = CARTESIAN_POINT('Ctrl Pts',(3.22996091011701,29.1906675309863,1.21237474368122));
#88336 = CARTESIAN_POINT('Ctrl Pts',(3.26690979942885,29.1955218335328,1.11393697205039));
#88337 = CARTESIAN_POINT('Ctrl Pts',(3.29931358665954,29.2003761360793,1.01391785883373));
#88338 = CARTESIAN_POINT('Ctrl Pts',(3.32706167542581,29.2052304386258,0.912776318663444));
#88339 = CARTESIAN_POINT('Ctrl Pts',(3.35283596231317,29.20973944058,0.818829269029298));
#88340 = CARTESIAN_POINT('Ctrl Pts',(3.37459382355913,29.2142484425342,0.723914191851884));
#88341 = CARTESIAN_POINT('Ctrl Pts',(3.39228660524204,29.2187574444884,0.628404000540608));
#88342 = CARTESIAN_POINT('Ctrl Pts',(3.41133438698367,29.2236117679427,0.525579170007845));
#88343 = CARTESIAN_POINT('Ctrl Pts',(3.42573568588026,29.228466091397,0.421709952978656));
#88344 = CARTESIAN_POINT('Ctrl Pts',(3.43538213702857,29.2333204148514,0.317253167966854));
#88345 = CARTESIAN_POINT('Ctrl Pts',(3.44501574885771,29.2381682772552,0.212935413773908));
#88346 = CARTESIAN_POINT('Ctrl Pts',(3.44990705523843,29.243016139659,0.1080320677585));
#88347 = CARTESIAN_POINT('Ctrl Pts',(3.44999868683517,29.2478640020628,0.0030101221864125));
#88348 = CARTESIAN_POINT('Ctrl Pts',(3.45009022263662,29.2527067963197,-0.101902029293174));
#88349 = CARTESIAN_POINT('Ctrl Pts',(3.44539206080337,29.2575495905765,-0.206932109133671));
#88350 = CARTESIAN_POINT('Ctrl Pts',(3.43589870414394,29.2623923848334,-0.311608881230981));
#88351 = CARTESIAN_POINT('Ctrl Pts',(3.42641228965734,29.2672316377175,-0.416209106721089));
#88352 = CARTESIAN_POINT('Ctrl Pts',(3.41213769180383,29.2720708906016,-0.520456114263629));
#88353 = CARTESIAN_POINT('Ctrl Pts',(3.39312146510977,29.2769101434857,-0.623880375561972));
#88354 = CARTESIAN_POINT('Ctrl Pts',(3.37411256677524,29.2817475314475,-0.727264779838007));
#88355 = CARTESIAN_POINT('Ctrl Pts',(3.35036574815982,29.2865849194093,-0.829826648481861));
#88356 = CARTESIAN_POINT('Ctrl Pts',(3.32197911609243,29.2914223073711,-0.931104050171486));
#88357 = CARTESIAN_POINT('Ctrl Pts',(3.29359608477863,29.2962590817257,-1.0323686051463));
#88358 = CARTESIAN_POINT('Ctrl Pts',(3.26057452535783,29.3010958560803,-1.13234860591065));
#88359 = CARTESIAN_POINT('Ctrl Pts',(3.2230628900193,29.3059326304349,-1.23059563097731));
#88360 = CARTESIAN_POINT('Ctrl Pts',(3.18554631519035,29.3107700416906,-1.32885559310296));
#88361 = CARTESIAN_POINT('Ctrl Pts',(3.14353864210378,29.3156074529463,-1.42538172714279));
#88362 = CARTESIAN_POINT('Ctrl Pts',(3.09723676725944,29.3204448642019,-1.51974484948503));
#88363 = CARTESIAN_POINT('Ctrl Pts',(3.05088638068459,29.3252873437446,-1.61420683863074));
#88364 = CARTESIAN_POINT('Ctrl Pts',(3.00023299433064,29.3301298232873,-1.70650090531132));
#88365 = CARTESIAN_POINT('Ctrl Pts',(2.94551987459315,29.33497230283,-1.79622177594437));
#88366 = CARTESIAN_POINT('Ctrl Pts',(2.89077823973331,29.3398173061531,-1.88598940687212));
#88367 = CARTESIAN_POINT('Ctrl Pts',(2.8319728957025,29.3446623094761,-1.97318081613092));
#88368 = CARTESIAN_POINT('Ctrl Pts',(2.76938978551999,29.3495073127991,-2.05742076782012));
#88369 = CARTESIAN_POINT('Ctrl Pts',(2.70670016013698,29.3543605622208,-2.14180409422046));
#88370 = CARTESIAN_POINT('Ctrl Pts',(2.64022019182362,29.3592138116425,-2.2232255945713));
#88371 = CARTESIAN_POINT('Ctrl Pts',(2.5702755876458,29.3640670610642,-2.30134382558366));
#88372 = CARTESIAN_POINT('Ctrl Pts',(2.50513551354603,29.3685869383395,-2.37409607597529));
#88373 = CARTESIAN_POINT('Ctrl Pts',(2.43699101910908,29.3731068156148,-2.44398345659672));
#88374 = CARTESIAN_POINT('Ctrl Pts',(2.36613139921573,29.3776266928902,-2.51076127930263));
#88375 = CARTESIAN_POINT('Ctrl Pts',(2.28998611887588,29.3824837232094,-2.58252028729731));
#88376 = CARTESIAN_POINT('Ctrl Pts',(2.21044246334889,29.3873407535286,-2.6509356684171));
#88377 = CARTESIAN_POINT('Ctrl Pts',(2.12782616552666,29.3921977838478,-2.7156685750106));
#88378 = CARTESIAN_POINT('Ctrl Pts',(2.04534284919665,29.3970469961558,-2.78029728571611));
#88379 = CARTESIAN_POINT('Ctrl Pts',(1.95979706526695,29.4018962084639,-2.8412550558824));
#88380 = CARTESIAN_POINT('Ctrl Pts',(1.87155042751386,29.4067454207719,-2.89824067276558));
#88381 = CARTESIAN_POINT('Ctrl Pts',(1.78338580232927,29.411590126434,-2.95517332970686));
#88382 = CARTESIAN_POINT('Ctrl Pts',(1.69252566722153,29.416434832096,-3.00814093856925));
#88383 = CARTESIAN_POINT('Ctrl Pts',(1.599363419148,29.4212795377581,-3.05688348706509));
#88384 = CARTESIAN_POINT('Ctrl Pts',(1.50627357541474,29.4261204781856,-3.10558815356323));
#88385 = CARTESIAN_POINT('Ctrl Pts',(1.41088555469019,29.430961418613,-3.15007409461073));
#88386 = CARTESIAN_POINT('Ctrl Pts',(1.3136194536794,29.4358023590405,-3.19012600549179));
#88387 = CARTESIAN_POINT('Ctrl Pts',(1.28709212561083,29.4371226259531,-3.20104934022685));
#88388 = CARTESIAN_POINT('Ctrl Pts',(1.26042524443032,29.4384428928657,-3.21164312970722));
#88389 = CARTESIAN_POINT('Ctrl Pts',(1.23362763320512,29.4397631597782,-3.22190360851977));
#88390 = CARTESIAN_POINT('Ctrl Pts',(1.23362763320506,29.6602010905669,-3.2219036085198));
#88391 = CARTESIAN_POINT('Ctrl Pts',(1.33178488870136,29.6553532692376,-3.18432039142428));
#88392 = CARTESIAN_POINT('Ctrl Pts',(1.42831512747071,29.6505054479083,-3.14221225576747));
#88393 = CARTESIAN_POINT('Ctrl Pts',(1.52277661264245,29.645657626579,-3.09574730686941));
#88394 = CARTESIAN_POINT('Ctrl Pts',(1.61718365946104,29.6408125990593,-3.0493091358194));
#88395 = CARTESIAN_POINT('Ctrl Pts',(1.70952394195259,29.6359675715397,-2.99851933101904));
#88396 = CARTESIAN_POINT('Ctrl Pts',(1.79937644259102,29.63112254402,-2.94359379294231));
#88397 = CARTESIAN_POINT('Ctrl Pts',(1.88920373214939,29.6262788759325,-2.8886836660353));
#88398 = CARTESIAN_POINT('Ctrl Pts',(1.97654426439657,29.621435207845,-2.82964033432183));
#88399 = CARTESIAN_POINT('Ctrl Pts',(2.06100307604584,29.6165915397575,-2.76672483643198));
#88400 = CARTESIAN_POINT('Ctrl Pts',(2.14545985193444,29.6117479884198,-2.70381085503158));
#88401 = CARTESIAN_POINT('Ctrl Pts',(2.2270347042154,29.6069044370821,-2.63702514773101));
#88402 = CARTESIAN_POINT('Ctrl Pts',(2.30536375725973,29.6020608857444,-2.56667059567707));
#88403 = CARTESIAN_POINT('Ctrl Pts',(2.383711011802,29.5972162088998,-2.49629969517789));
#88404 = CARTESIAN_POINT('Ctrl Pts',(2.45881065155406,29.5923715320552,-2.42235858625218));
#88405 = CARTESIAN_POINT('Ctrl Pts',(2.53033449620341,29.5875268552105,-2.3451881240794));
#88406 = CARTESIAN_POINT('Ctrl Pts',(2.6019356734721,29.582676940231,-2.26793422408241));
#88407 = CARTESIAN_POINT('Ctrl Pts',(2.66995304767984,29.5778270252514,-2.18744431303799));
#88408 = CARTESIAN_POINT('Ctrl Pts',(2.73409775011946,29.5729771102719,-2.1040935085665));
#88409 = CARTESIAN_POINT('Ctrl Pts',(2.79828149271478,29.5681242435063,-2.02069197459966));
#88410 = CARTESIAN_POINT('Ctrl Pts',(2.85858762615906,29.5632713767407,-1.93442642829549));
#88411 = CARTESIAN_POINT('Ctrl Pts',(2.91477086188595,29.5584185099751,-1.84570063192833));
#88412 = CARTESIAN_POINT('Ctrl Pts',(2.9710405428313,29.5535581764426,-1.75683831937889));
#88413 = CARTESIAN_POINT('Ctrl Pts',(3.02317444986794,29.5486978429101,-1.66550856804269));
#88414 = CARTESIAN_POINT('Ctrl Pts',(3.07097341811573,29.5438375093775,-1.5721393911567));
#88415 = CARTESIAN_POINT('Ctrl Pts',(3.09407727339128,29.5414882443904,-1.52700896200628));
#88416 = CARTESIAN_POINT('Ctrl Pts',(3.11616907098549,29.5391389794032,-1.48140235559565));
#88417 = CARTESIAN_POINT('Ctrl Pts',(3.13723043636344,29.5367897144161,-1.43536935635219));
#88418 = CARTESIAN_POINT('Ctrl Pts',(3.18083172437624,29.5319262605286,-1.34007173333058));
#88419 = CARTESIAN_POINT('Ctrl Pts',(3.22015913497176,29.5270628066411,-1.24262777129525));
#88420 = CARTESIAN_POINT('Ctrl Pts',(3.25499726410151,29.5221993527536,-1.14345651893357));
#88421 = CARTESIAN_POINT('Ctrl Pts',(3.28979022780534,29.5173422040258,-1.04441383581382));
#88422 = CARTESIAN_POINT('Ctrl Pts',(3.32010534178837,29.512485055298,-0.943648712406643));
#88423 = CARTESIAN_POINT('Ctrl Pts',(3.34577429469841,29.5076279065701,-0.841602262910063));
#88424 = CARTESIAN_POINT('Ctrl Pts',(3.37141721844016,29.5027756831519,-0.739659291892637));
#88425 = CARTESIAN_POINT('Ctrl Pts',(3.39242324723421,29.4979234597338,-0.636437988830474));
#88426 = CARTESIAN_POINT('Ctrl Pts',(3.40867342100553,29.4930712363156,-0.532396007620722));
#88427 = CARTESIAN_POINT('Ctrl Pts',(3.4249123301866,29.4882223764497,-0.428426148118931));
#88428 = CARTESIAN_POINT('Ctrl Pts',(3.43640187486504,29.4833735165838,-0.323637160635741));
#88429 = CARTESIAN_POINT('Ctrl Pts',(3.44307403703201,29.4785246567178,-0.218497541212988));
#88430 = CARTESIAN_POINT('Ctrl Pts',(3.44974377817068,29.4736775562856,-0.1133960722408));
#88431 = CARTESIAN_POINT('Ctrl Pts',(3.4515995841348,29.4688304558534,-0.0079446480594788));
#88432 = CARTESIAN_POINT('Ctrl Pts',(3.44862530698592,29.4639833554211,0.0973832224579478));
#88433 = CARTESIAN_POINT('Ctrl Pts',(3.44565134848531,29.4591367742815,0.202699808706267));
#88434 = CARTESIAN_POINT('Ctrl Pts',(3.43784834778925,29.4542901931419,0.307892442614513));
#88435 = CARTESIAN_POINT('Ctrl Pts',(3.42525227526621,29.4494436120023,0.412488606853157));
#88436 = CARTESIAN_POINT('Ctrl Pts',(3.41265433119367,29.444596310748,0.517100312197759));
#88437 = CARTESIAN_POINT('Ctrl Pts',(3.39526195091132,29.4397490094938,0.621114949590072));
#88438 = CARTESIAN_POINT('Ctrl Pts',(3.37316275932615,29.4349017082395,0.724066985226619));
#88439 = CARTESIAN_POINT('Ctrl Pts',(3.35104014372158,29.4300492690924,0.827128144786168));
#88440 = CARTESIAN_POINT('Ctrl Pts',(3.32420084142974,29.4251968299452,0.929124036380931));
#88441 = CARTESIAN_POINT('Ctrl Pts',(3.29278325064765,29.4203443907981,1.029601119004));
#88442 = CARTESIAN_POINT('Ctrl Pts',(3.26134897168163,29.4154893741651,1.130131572366));
#88443 = CARTESIAN_POINT('Ctrl Pts',(3.22533170505307,29.410634357532,1.22914120988576));
#88444 = CARTESIAN_POINT('Ctrl Pts',(3.18491852718416,29.405779340899,1.32619530054932));
#88445 = CARTESIAN_POINT('Ctrl Pts',(3.14443684729204,29.4009160948102,1.42341390194727));
#88446 = CARTESIAN_POINT('Ctrl Pts',(3.09954454912235,29.3960528487213,1.51866994807676));
#88447 = CARTESIAN_POINT('Ctrl Pts',(3.05047547321956,29.3911896026325,1.61155185684045));
#88448 = CARTESIAN_POINT('Ctrl Pts',(3.00584792336298,29.3867665570931,1.69602648648984));
#88449 = CARTESIAN_POINT('Ctrl Pts',(2.95776619867455,29.3823435115536,1.77853744413595));
#88450 = CARTESIAN_POINT('Ctrl Pts',(2.90643659412007,29.3779204660142,1.85879700999322));
#88451 = CARTESIAN_POINT('Ctrl Pts',(2.85016113380119,29.3730712386356,1.94678997336814));
#88452 = CARTESIAN_POINT('Ctrl Pts',(2.78978676061655,29.3682220112569,2.03238022697485));
#88453 = CARTESIAN_POINT('Ctrl Pts',(2.72554511920239,29.3633727838782,2.11516046748043));
#88454 = CARTESIAN_POINT('Ctrl Pts',(2.6613900710922,29.3585300929238,2.19782912592846));
#88455 = CARTESIAN_POINT('Ctrl Pts',(2.59337837711001,29.3536874019693,2.27769496557959));
#88456 = CARTESIAN_POINT('Ctrl Pts',(2.52178593566484,29.3488447110149,2.35437798466666));
#88457 = CARTESIAN_POINT('Ctrl Pts',(2.45026943075957,29.344007156597,2.43097966774923));
#88458 = CARTESIAN_POINT('Ctrl Pts',(2.37518002049266,29.3391696021791,2.50440493161449));
#88459 = CARTESIAN_POINT('Ctrl Pts',(2.29683445000386,29.3343320477613,2.57430602479104));
#88460 = CARTESIAN_POINT('Ctrl Pts',(2.21854757155223,29.3294981173635,2.64415475205165));
#88461 = CARTESIAN_POINT('Ctrl Pts',(2.1370097018978,29.3246641869658,2.71048427442373));
#88462 = CARTESIAN_POINT('Ctrl Pts',(2.05257449357451,29.319830256568,2.77298358241215));
#88463 = CARTESIAN_POINT('Ctrl Pts',(1.96817271589369,29.3149982400804,2.8354581448938));
#88464 = CARTESIAN_POINT('Ctrl Pts',(1.88087622279657,29.3101662235927,2.89410525221794));
#88465 = CARTESIAN_POINT('Ctrl Pts',(1.79107118855097,29.3053342071051,2.9486546080446));
#88466 = CARTESIAN_POINT('Ctrl Pts',(1.70127835788511,29.3005028472388,3.0031965511753));
#88467 = CARTESIAN_POINT('Ctrl Pts',(1.60897802959986,29.2956714873724,3.05364162756942));
#88468 = CARTESIAN_POINT('Ctrl Pts',(1.51458397288348,29.2908401275061,3.09976376343174));
#88469 = CARTESIAN_POINT('Ctrl Pts',(1.42017819686952,29.2860081678123,3.1458916254918));
#88470 = CARTESIAN_POINT('Ctrl Pts',(1.32367856072094,29.2811762081186,3.18769529285927));
#88471 = CARTESIAN_POINT('Ctrl Pts',(1.22552111836704,29.2763442484248,3.22499581215796));
#88472 = CARTESIAN_POINT('Ctrl Pts',(1.12726122210684,29.2715072452709,3.26233526466251));
#88473 = CARTESIAN_POINT('Ctrl Pts',(1.02734046444461,29.266670242117,3.29516202843806));
#88474 = CARTESIAN_POINT('Ctrl Pts',(0.926212467443419,29.2618332389632,3.32334627524012));
#88475 = CARTESIAN_POINT('Ctrl Pts',(0.825032174293397,29.2569937344581,3.35154509691372));
#88476 = CARTESIAN_POINT('Ctrl Pts',(0.722643815676953,29.252154229953,3.37509652356055));
#88477 = CARTESIAN_POINT('Ctrl Pts',(0.61951168598716,29.2473147254479,3.39392181273013));
#88478 = CARTESIAN_POINT('Ctrl Pts',(0.516203374797288,29.2424669535759,3.41277926130235));
#88479 = CARTESIAN_POINT('Ctrl Pts',(0.412149178603366,29.2376191817038,3.4268943826169));
#88480 = CARTESIAN_POINT('Ctrl Pts',(0.307819368357473,29.2327714098318,3.43624027629967));
#88481 = CARTESIAN_POINT('Ctrl Pts',(0.209394422590943,29.2281980124253,3.44505721056513));
#88482 = CARTESIAN_POINT('Ctrl Pts',(0.110724504926484,29.2236246150188,3.4496299574141));
#88483 = CARTESIAN_POINT('Ctrl Pts',(0.0122022350928861,29.2190512176124, 3.44997842101349));
#88484 = CARTESIAN_POINT('Ctrl Pts',(-0.0924158037012513,29.2141948550042, 3.45034844474945));
#88485 = CARTESIAN_POINT('Ctrl Pts',(-0.197230406552115,29.209338492396,3.44595610198641));
#88486 = CARTESIAN_POINT('Ctrl Pts',(-0.301772392830812,29.2044821297879, 3.4367766035815));
#88487 = CARTESIAN_POINT('Ctrl Pts',(-0.406175402030642,29.19963222318,3.42760930831065));
#88488 = CARTESIAN_POINT('Ctrl Pts',(-0.51030609387741,29.1947823165721,3.41366754615425));
#88489 = CARTESIAN_POINT('Ctrl Pts',(-0.613694417564883,29.1899324099642, 3.39497852155941));
#88490 = CARTESIAN_POINT('Ctrl Pts',(-0.716974751898266,29.1850875690954, 3.37630901769594));
#88491 = CARTESIAN_POINT('Ctrl Pts',(-0.819513842450013,29.1802427282267, 3.35290218679049));
#88492 = CARTESIAN_POINT('Ctrl Pts',(-0.920846753956211,29.175397887358,3.32483702694257));
#88493 = CARTESIAN_POINT('Ctrl Pts',(-1.02210549617484,29.1705565926066,3.29679240901811));
#88494 = CARTESIAN_POINT('Ctrl Pts',(-1.12215940510469,29.1657152978552,3.26409635605938));
#88495 = CARTESIAN_POINT('Ctrl Pts',(-1.22055454460768,29.1608740031038,3.22687877114055));
#88496 = CARTESIAN_POINT('Ctrl Pts',(-1.31891171068574,29.1560345767429,3.18967554952436));
#88497 = CARTESIAN_POINT('Ctrl Pts',(-1.41561098101717,29.1511951503821,3.14795441463924));
#88498 = CARTESIAN_POINT('Ctrl Pts',(-1.51021511694757,29.1463557240212,3.10189463079309));
#88499 = CARTESIAN_POINT('Ctrl Pts',(-1.60480714423737,29.1415169170716,3.05584074226393));
#88500 = CARTESIAN_POINT('Ctrl Pts',(-1.69730418670519,29.1366781101221,3.00544949558932));
#88501 = CARTESIAN_POINT('Ctrl Pts',(-1.78729129973872,29.1318393031725,2.95094727331382));
#88502 = CARTESIAN_POINT('Ctrl Pts',(-1.87729010572904,29.1269998674667,2.89643796900059));
#88503 = CARTESIAN_POINT('Ctrl Pts',(-1.96477796933102,29.1221604317609,2.83781684882654));
#88504 = CARTESIAN_POINT('Ctrl Pts',(-2.04936753114753,29.1173209960551,2.77535452190856));
#88505 = CARTESIAN_POINT('Ctrl Pts',(-2.13404523638307,29.1124765175946,2.71282710843691));
#88506 = CARTESIAN_POINT('Ctrl Pts',(-2.21581826361734,29.1076320391341,2.64645074744237));
#88507 = CARTESIAN_POINT('Ctrl Pts',(-2.29433106369016,29.1027875606736,2.5765373993378));
#88508 = CARTESIAN_POINT('Ctrl Pts',(-2.3728845915141,29.097940569187,2.50658778436414));
#88509 = CARTESIAN_POINT('Ctrl Pts',(-2.44817421774572,29.0930935777005,2.43309782547043));
#88510 = CARTESIAN_POINT('Ctrl Pts',(-2.51988156529645,29.0882465862139,2.35641611284575));
#88511 = CARTESIAN_POINT('Ctrl Pts',(-2.59171031759261,29.0833913884865,2.27960457358381));
#88512 = CARTESIAN_POINT('Ctrl Pts',(-2.65994439526418,29.078536190759,2.19959080815421));
#88513 = CARTESIAN_POINT('Ctrl Pts',(-2.72430576914081,29.0736809930316,2.11675649903953));
#88514 = CARTESIAN_POINT('Ctrl Pts',(-2.78395426462155,29.0691813184246,2.03998775382369));
#88515 = CARTESIAN_POINT('Ctrl Pts',(-2.8402767573028,29.0646816438176,1.96079696595594));
#88516 = CARTESIAN_POINT('Ctrl Pts',(-2.89308662002761,29.0601819692106,1.87950786351566));
#88517 = CARTESIAN_POINT('Ctrl Pts',(-2.95008022237629,29.0553258182566,1.79177881934252));
#88518 = CARTESIAN_POINT('Ctrl Pts',(-3.00317756713552,29.0504696673027,1.70130457385241));
#88519 = CARTESIAN_POINT('Ctrl Pts',(-3.05210368459057,29.0456135163487,1.60846607005205));
#88520 = CARTESIAN_POINT('Ctrl Pts',(-3.10096491098354,29.0407638061427,1.51575069862815));
#88521 = CARTESIAN_POINT('Ctrl Pts',(-3.1456657112762,29.0359140959368,1.42067767695728));
#88522 = CARTESIAN_POINT('Ctrl Pts',(-3.185974351013,29.0310643857308,1.32365684174084));
#88523 = CARTESIAN_POINT('Ctrl Pts',(-3.22624101495626,29.0262197258177,1.22673704011356));
#88524 = CARTESIAN_POINT('Ctrl Pts',(-3.26212445048952,29.0213750659045,1.12787385016157));
#88525 = CARTESIAN_POINT('Ctrl Pts',(-3.29343923260756,29.0165304059914,1.02750086185918));
#88526 = CARTESIAN_POINT('Ctrl Pts',(-3.324731250684,29.0116892678668,0.927200838933694));
#88527 = CARTESIAN_POINT('Ctrl Pts',(-3.35146109304491,29.0068481297422,0.825393606261833));
#88528 = CARTESIAN_POINT('Ctrl Pts',(-3.37349208324539,29.0020069916175,0.722531081878613));
#88529 = CARTESIAN_POINT('Ctrl Pts',(-3.39551463856067,28.9971677069931,0.619707939909733));
#88530 = CARTESIAN_POINT('Ctrl Pts',(-3.41284182777722,28.9923284223686,0.515830725912091));
#88531 = CARTESIAN_POINT('Ctrl Pts',(-3.42538751281934,28.9874891377442,0.411364056550097));
#88532 = CARTESIAN_POINT('Ctrl Pts',(-3.43793163122694,28.9826504574224,0.306910432397629));
#88533 = CARTESIAN_POINT('Ctrl Pts',(-3.44569538169559,28.9778117771005,0.201867922844529));
#88534 = CARTESIAN_POINT('Ctrl Pts',(-3.44864431010181,28.9729730967787,0.0967079231624084));
#88535 = CARTESIAN_POINT('Ctrl Pts',(-3.45159363105128,28.9681337723615,-0.00846607477337107));
#88536 = CARTESIAN_POINT('Ctrl Pts',(-3.44972684456622,28.9632944479442,-0.113757167341696));
#88537 = CARTESIAN_POINT('Ctrl Pts',(-3.44306161523959,28.958455123527,-0.218693195284557));
#88538 = CARTESIAN_POINT('Ctrl Pts',(-3.43638940594545,28.953610731268,-0.32373911442986));
#88539 = CARTESIAN_POINT('Ctrl Pts',(-3.4249087439903,28.948766339009,-0.428428799529278));
#88540 = CARTESIAN_POINT('Ctrl Pts',(-3.40868928408146,28.9439219467501,-0.532294434113489));
#88541 = CARTESIAN_POINT('Ctrl Pts',(-3.39246136491446,28.9390750278987,-0.636214239812081));
#88542 = CARTESIAN_POINT('Ctrl Pts',(-3.37148980957595,28.9342281090473,-0.739308720546158));
#88543 = CARTESIAN_POINT('Ctrl Pts',(-3.3458951972385,28.9293811901959,-0.841121471070806));
#88544 = CARTESIAN_POINT('Ctrl Pts',(-3.32025712412847,28.924526041064,-0.943107104104403));
#88545 = CARTESIAN_POINT('Ctrl Pts',(-3.28998043147697,28.9196708919321,-1.04380624891952));
#88546 = CARTESIAN_POINT('Ctrl Pts',(-3.25523536963637,28.9148157428003,-1.14277849483982));
#88547 = CARTESIAN_POINT('Ctrl Pts',(-3.22302466430146,28.9103147354698,-1.23453155788799));
#88548 = CARTESIAN_POINT('Ctrl Pts',(-3.18697430602387,28.9058137281393,-1.32480041581788));
#88549 = CARTESIAN_POINT('Ctrl Pts',(-3.14725549486124,28.9013127208087,-1.41325257829793));
#88550 = CARTESIAN_POINT('Ctrl Pts',(-3.1044184489963,28.8964583494967,-1.50864892149401));
#88551 = CARTESIAN_POINT('Ctrl Pts',(-3.05716607941479,28.8916039781847,-1.60226079071017));
#88552 = CARTESIAN_POINT('Ctrl Pts',(-3.00566911513988,28.8867496068727,-1.69365084072669));
#88553 = CARTESIAN_POINT('Ctrl Pts',(-2.95424079668663,28.8819017064723,-1.78491906715299));
#88554 = CARTESIAN_POINT('Ctrl Pts',(-2.89857933944277,28.877053806072,-1.87397099343164));
#88555 = CARTESIAN_POINT('Ctrl Pts',(-2.83890320122549,28.8722059056716,-1.96038991378543));
#88556 = CARTESIAN_POINT('Ctrl Pts',(-2.77928957114137,28.867363083234,-2.04671831411662));
#88557 = CARTESIAN_POINT('Ctrl Pts',(-2.7156698631499,28.8625202607963,-2.13041884311512));
#88558 = CARTESIAN_POINT('Ctrl Pts',(-2.64830761184324,28.8576774383587,-2.21110081024207));
#88559 = CARTESIAN_POINT('Ctrl Pts',(-2.58099482790232,28.8528381722402,-2.29172352869043));
#88560 = CARTESIAN_POINT('Ctrl Pts',(-2.50994523873943,28.8479989061218,-2.36933176650829));
#88561 = CARTESIAN_POINT('Ctrl Pts',(-2.43546421707421,28.8431596400034,-2.44356584673938));
#88562 = CARTESIAN_POINT('Ctrl Pts',(-2.36101203845838,28.8383222479085,-2.51777117955004));
#88563 = CARTESIAN_POINT('Ctrl Pts',(-2.28313137025999,28.8334848558137,-2.58860465041979));
#88564 = CARTESIAN_POINT('Ctrl Pts',(-2.20216566374763,28.8286474637188,-2.65574215416538));
#88565 = CARTESIAN_POINT('Ctrl Pts',(-2.12121037961965,28.8238106943217,-2.72287101557459));
#88566 = CARTESIAN_POINT('Ctrl Pts',(-2.0371711754231,28.8189739249246,-2.78630458316714));
#88567 = CARTESIAN_POINT('Ctrl Pts',(-1.95042522506688,28.8141371555274,-2.84575850019337));
#88568 = CARTESIAN_POINT('Ctrl Pts',(-1.86366801505739,28.809299758316,-2.90522013435784));
#88569 = CARTESIAN_POINT('Ctrl Pts',(-1.77420371316707,28.8044623611046,-2.96070085021596));
#88570 = CARTESIAN_POINT('Ctrl Pts',(-1.6824383942733,28.7996249638932,-3.01195966929756));
#88571 = CARTESIAN_POINT('Ctrl Pts',(-1.59057719984052,28.7947825126148,-3.06327204310951));
#88572 = CARTESIAN_POINT('Ctrl Pts',(-1.4964105601366,28.7899400613364,-3.11035350095738));
#88573 = CARTESIAN_POINT('Ctrl Pts',(-1.40036908598213,28.7850976100581,-3.15300910608034));
#88574 = CARTESIAN_POINT('Ctrl Pts',(-1.3042777119667,28.7802526428079,-3.19568687359496));
#88575 = CARTESIAN_POINT('Ctrl Pts',(-1.20630996109889,28.7754076755576,-3.23393405238558));
#88576 = CARTESIAN_POINT('Ctrl Pts',(-1.10691445874669,28.7705627083074,-3.26760468554835));
#88577 = CARTESIAN_POINT('Ctrl Pts',(-1.0073500499619,28.7657095078262,-3.30133253645635));
#88578 = CARTESIAN_POINT('Ctrl Pts',(-0.906353452718651,28.7608563073449, -3.3304681836043));
#88579 = CARTESIAN_POINT('Ctrl Pts',(-0.804386774247483,28.7560031068637, -3.35491608202288));
#88580 = CARTESIAN_POINT('Ctrl Pts',(-0.709423262218068,28.7514832287114, -3.37768487600907));
#88581 = CARTESIAN_POINT('Ctrl Pts',(-0.613618726768241,28.7469633505591, -3.39638820838429));
#88582 = CARTESIAN_POINT('Ctrl Pts',(-0.517350304120836,28.7424434724069, -3.41098939646931));
#88583 = CARTESIAN_POINT('Ctrl Pts',(-0.413937509548625,28.7375881603741, -3.42667418305273));
#88584 = CARTESIAN_POINT('Ctrl Pts',(-0.309632712201676,28.7327328483414, -3.43767889004603));
#88585 = CARTESIAN_POINT('Ctrl Pts',(-0.204896194415395,28.7278775363086, -3.44391021217367));
#88586 = CARTESIAN_POINT('Ctrl Pts',(-0.100293567388125,28.7230284311026, -3.4501335684412));
#88587 = CARTESIAN_POINT('Ctrl Pts',(0.00473926086671046,28.7181793258965, -3.45159564292448));
#88588 = CARTESIAN_POINT('Ctrl Pts',(0.109733446910229,28.7133302206905,-3.44825442370907));
#88589 = CARTESIAN_POINT('Ctrl Pts',(0.214604682034172,28.7084867939126,-3.44491711714818));
#88590 = CARTESIAN_POINT('Ctrl Pts',(0.319436940780407,28.7036433671347,-3.43678772179287));
#88591 = CARTESIAN_POINT('Ctrl Pts',(0.423759021983079,28.6987999403568,-3.42387620852272));
#88592 = CARTESIAN_POINT('Ctrl Pts',(0.528009671568526,28.6939598299795,-3.41097353604892));
#88593 = CARTESIAN_POINT('Ctrl Pts',(0.631750415881453,28.6891197196022,-3.39329530674188));
#88594 = CARTESIAN_POINT('Ctrl Pts',(0.734513402522198,28.6842796092249,-3.37090344885689));
#88595 = CARTESIAN_POINT('Ctrl Pts',(0.837239813908735,28.6794412215326,-3.3485195606497));
#88596 = CARTESIAN_POINT('Ctrl Pts',(0.938988742354437,28.6746028338404,-3.32142546680048));
#88597 = CARTESIAN_POINT('Ctrl Pts',(1.03930157443695,28.6697644461482,-3.28973437185632));
#88598 = CARTESIAN_POINT('Ctrl Pts',(1.10472898263957,28.6666086867104,-3.26906437219372));
#88599 = CARTESIAN_POINT('Ctrl Pts',(1.16954565628554,28.6634529272725,-3.24643981665131));
#88600 = CARTESIAN_POINT('Ctrl Pts',(1.23362763320506,28.6602971678347,-3.2219036085198));
#97856 = CARTESIAN_POINT('',(8.37355900338938E-15,-1.5,-1.9));
#97857 = CARTESIAN_POINT('',(-1.10524344990624E-13,-1.5,-1.83750000000001));
#97858 = CARTESIAN_POINT('',(-1.83697019872103E-16,-1.5,-9.65));
#97898 = CARTESIAN_POINT('Origin',(0.,-4.08024578888937E-16,-9.65));
#97899 = CARTESIAN_POINT('',(1.10235999999511E-13,-1.5,-2.39999999999999));
#97900 = CARTESIAN_POINT('',(-1.78584683734892E-16,-1.5,-2.3375));
#97901 = CARTESIAN_POINT('',(-1.83697019872103E-16,-1.5,-9.65));
#97902 = CARTESIAN_POINT('Ctrl Pts',(2.20655697018893E-13,-1.5,-2.39999999999999));
#97903 = CARTESIAN_POINT('Ctrl Pts',(0.0446866432715193,-1.5,-2.39785001287316));
#97904 = CARTESIAN_POINT('Ctrl Pts',(0.0894198514884003,-1.49800320406201, -2.39564231883548));
#97905 = CARTESIAN_POINT('Ctrl Pts',(0.33216537324959,-1.47621975128967,-2.38335812356402));
#97906 = CARTESIAN_POINT('Ctrl Pts',(0.524735235130082,-1.41922200076051, -2.37250983091645));
#97907 = CARTESIAN_POINT('Ctrl Pts',(0.871983263479943,-1.23581136686434, -2.35070811253239));
#97908 = CARTESIAN_POINT('Ctrl Pts',(1.02425456323343,-1.11287912297147,-2.3399671716546));
#97909 = CARTESIAN_POINT('Ctrl Pts',(1.27260752980107,-0.81699827975123,-2.31979937166777));
#97910 = CARTESIAN_POINT('Ctrl Pts',(1.36678487669327,-0.647237619334582, -2.31095764551855));
#97911 = CARTESIAN_POINT('Ctrl Pts',(1.48799058251259,-0.274881222867317, -2.29027117904814));
#97912 = CARTESIAN_POINT('Ctrl Pts',(1.51129959338584,-0.0750919538654722, -2.27917177521471));
#97913 = CARTESIAN_POINT('Ctrl Pts',(1.47915085768968,0.314388053468777,-2.25753399702947));
#97914 = CARTESIAN_POINT('Ctrl Pts',(1.42692591478448,0.500630191029183,-2.24718721160945));
#97915 = CARTESIAN_POINT('Ctrl Pts',(1.25204566055722,0.84961410165261,-2.22779921657482));
#97916 = CARTESIAN_POINT('Ctrl Pts',(1.12864369476018,1.00779587912221,-2.21797423177342));
#97917 = CARTESIAN_POINT('Ctrl Pts',(0.828833174688813,1.26559111789818,-2.19638861254611));
#97918 = CARTESIAN_POINT('Ctrl Pts',(0.655921667070025,1.36325085762543,-2.18535663320899));
#97919 = CARTESIAN_POINT('Ctrl Pts',(0.288677744379754,1.48416505168832,-2.16432887412751));
#97920 = CARTESIAN_POINT('Ctrl Pts',(0.0986552973965636,1.50874919684851, -2.15498958845482));
#97921 = CARTESIAN_POINT('Ctrl Pts',(-0.289385654159964,1.48519512435969, -2.13566567967698));
#97922 = CARTESIAN_POINT('Ctrl Pts',(-0.483493906473292,1.43379201778925, -2.12489877796183));
#97923 = CARTESIAN_POINT('Ctrl Pts',(-0.836359921964956,1.26027651370012, -2.10310162876225));
#97924 = CARTESIAN_POINT('Ctrl Pts',(-0.992499988597071,1.14138038910461, -2.09228666617615));
#97925 = CARTESIAN_POINT('Ctrl Pts',(-1.24873896726469,0.852825405147788, -2.07194294634591));
#97926 = CARTESIAN_POINT('Ctrl Pts',(-1.34727470246148,0.686665969636328, -2.06314810942419));
#97927 = CARTESIAN_POINT('Ctrl Pts',(-1.47937082574374,0.318393327600756, -2.04268851819999));
#97928 = CARTESIAN_POINT('Ctrl Pts',(-1.50857345947931,0.118766243301766, -2.03159812462783));
#97929 = CARTESIAN_POINT('Ctrl Pts',(-1.48749023769114,-0.272583545355111, -2.00985646970245));
#97930 = CARTESIAN_POINT('Ctrl Pts',(-1.44037126809893,-0.46073727090825, -1.9994034849495));
#97931 = CARTESIAN_POINT('Ctrl Pts',(-1.27571175718314,-0.813199170428813, -1.97982226830947));
#97932 = CARTESIAN_POINT('Ctrl Pts',(-1.15813565951503,-0.973381389778713, -1.97034912262658));
#97933 = CARTESIAN_POINT('Ctrl Pts',(-0.867443546569076,-1.23954180631019, -1.94896984691788));
#97934 = CARTESIAN_POINT('Ctrl Pts',(-0.697073007652544,-1.34276191574069, -1.93790566528046));
#97935 = CARTESIAN_POINT('Ctrl Pts',(-0.347459626841816,-1.46961511417038, -1.91756118369714));
#97936 = CARTESIAN_POINT('Ctrl Pts',(-0.174323197795415,-1.5,-1.90838712876443));
#97937 = CARTESIAN_POINT('Ctrl Pts',(1.59941504485062E-14,-1.5,-1.9));
#97938 = CARTESIAN_POINT('Ctrl Pts',(-2.20864992961377E-13,-1.5,-1.83750000000001));
#97939 = CARTESIAN_POINT('Ctrl Pts',(-0.0368623918558662,-1.5,-1.83927354265508));
#97940 = CARTESIAN_POINT('Ctrl Pts',(-0.073763913518259,-1.49864120837774, -1.8410867121556));
#97941 = CARTESIAN_POINT('Ctrl Pts',(-0.302085379334072,-1.48175565959033, -1.85254087682335));
#97942 = CARTESIAN_POINT('Ctrl Pts',(-0.489025568626413,-1.43097495551879, -1.8629456159873));
#97943 = CARTESIAN_POINT('Ctrl Pts',(-0.840337210034132,-1.25842118658535, -1.88464126546347));
#97944 = CARTESIAN_POINT('Ctrl Pts',(-1.00006721705649,-1.13563545663984, -1.89573699373018));
#97945 = CARTESIAN_POINT('Ctrl Pts',(-1.25712218842896,-0.840510858840832, -1.91630246230113));
#97946 = CARTESIAN_POINT('Ctrl Pts',(-1.35420304308172,-0.673014628738478, -1.92511029840343));
#97947 = CARTESIAN_POINT('Ctrl Pts',(-1.48076488748436,-0.308291742245546, -1.94537268098637));
#97948 = CARTESIAN_POINT('Ctrl Pts',(-1.50819421076519,-0.11422360629031, -1.956154244095));
#97949 = CARTESIAN_POINT('Ctrl Pts',(-1.48732444675262,0.278204630508882, -1.97795581280606));
#97950 = CARTESIAN_POINT('Ctrl Pts',(-1.43739269292392,0.472711044723599, -1.98876172470688));
#97951 = CARTESIAN_POINT('Ctrl Pts',(-1.26845143123654,0.822853866468711, -2.00821410369272));
#97952 = CARTESIAN_POINT('Ctrl Pts',(-1.15421015875159,0.97666538347171,-2.01743096516395));
#97953 = CARTESIAN_POINT('Ctrl Pts',(-0.869565726157328,1.23791656925513, -2.03838290419529));
#97954 = CARTESIAN_POINT('Ctrl Pts',(-0.700167326631228,1.34102411927484, -2.04939718710417));
#97955 = CARTESIAN_POINT('Ctrl Pts',(-0.328270138092435,1.47718926068123, -2.07107246396939));
#97956 = CARTESIAN_POINT('Ctrl Pts',(-0.129042021869572,1.50770184074078, -2.0810775228075));
#97957 = CARTESIAN_POINT('Ctrl Pts',(0.261537194051402,1.48938177747637,-2.10037816474139));
#97958 = CARTESIAN_POINT('Ctrl Pts',(0.449289004135162,1.4438758085087,-2.11067543260933));
#97959 = CARTESIAN_POINT('Ctrl Pts',(0.804299308330759,1.28166496037821,-2.13226173072621));
#97960 = CARTESIAN_POINT('Ctrl Pts',(0.966986956686349,1.16383327810161,-2.14336214614266));
#97961 = CARTESIAN_POINT('Ctrl Pts',(1.23281269620859,0.875999571504766,-2.16414707373736));
#97962 = CARTESIAN_POINT('Ctrl Pts',(1.33510265331612,0.710423042785775,-2.17303205317858));
#97963 = CARTESIAN_POINT('Ctrl Pts',(1.47167733932121,0.348815694243774,-2.1931213503198));
#97964 = CARTESIAN_POINT('Ctrl Pts',(1.50436781701633,0.156109912921266,-2.20382722705994));
#97965 = CARTESIAN_POINT('Ctrl Pts',(1.49456606947036,-0.236252467604954, -2.22562513708917));
#97966 = CARTESIAN_POINT('Ctrl Pts',(1.45011794280855,-0.432111481362454, -2.23650619340903));
#97967 = CARTESIAN_POINT('Ctrl Pts',(1.29101128548678,-0.787023085737081, -2.25622350476318));
#97968 = CARTESIAN_POINT('Ctrl Pts',(1.18103363775696,-0.944079505945871, -2.26523525666398));
#97969 = CARTESIAN_POINT('Ctrl Pts',(0.904065583004997,-1.21286160675394, -2.2860270578782));
#97970 = CARTESIAN_POINT('Ctrl Pts',(0.738133667622048,-1.32042497463803, -2.29699833220944));
#97971 = CARTESIAN_POINT('Ctrl Pts',(0.379175592595816,-1.46375304244334, -2.31825004586327));
#97972 = CARTESIAN_POINT('Ctrl Pts',(0.190390033539217,-1.5,-2.32833985524043));
#97973 = CARTESIAN_POINT('Ctrl Pts',(1.35308431126191E-15,-1.5,-2.3375));
ENDSEC;
END-ISO-10303-21;
